<!DOCTYPE svg PUBLIC "-//W3C//DTD SVG 1.1//EN" "http://www.w3.org/Graphics/SVG/1.1/DTD/svg11.dtd">
<svg style="stroke-linecap:square;" xmlns="http://www.w3.org/2000/svg" xmlns:xlink="http://www.w3.org/1999/xlink" width="632" height="532">
<defs><clipPath id="clip-0"><path d="M 0 0 L 632 0 L 632 532 L 0 532 L 0 0 M 0 0"/></clipPath>
<clipPath id="clip-1"><path d="M 272.27 227.73 L 272.27 859.73 L -259.73 859.73 L -259.73 227.73 L 272.27 227.73 M 272.27 227.73"/></clipPath>
<clipPath id="clip-2"><path d="M 75 60 L 75 440 L 622 440 L 622 60 M 75 60"/></clipPath>
</defs>
<rect x="0" y="0" width="632" height="532" style="fill: rgb(255,255,255);fill-opacity: 1" transform="matrix(1,0,0,1,0,0)" clip-path="url(#clip-0)"/><g transform="matrix(1,0,0,1,0,0)"><text x="144.5" y="25.85" style="fill: rgb(75,75,109); font-family: sans-serif; font-size: 16px; font-weight: bold; " text-rendering="auto" clip-path="url(#clip-0)">Correspondence analysis factorial map</text></g><g transform="matrix(1,0,0,1,0,0)"><text x="105" y="44.48" style="fill: rgb(75,75,109); font-family: sans-serif; font-size: 16px; font-weight: bold; " text-rendering="auto" clip-path="url(#clip-0)"> of the part_gj_by_site partition in the gj corpus</text></g><rect x="246.5" y="501.2" width="139" height="20.8" style="fill: rgb(255,255,255);fill-opacity: 1" transform="matrix(1,0,0,1,0,0)" clip-path="url(#clip-0)"/><g style="stroke-width: 1.0;stroke: rgb(128,128,128);stroke-opacity: 1; fill: none" transform="matrix(1,0,0,1,0,0)" clip-path="url(#clip-0)"><path d="M 246.5 506.2 L 246.5 517 C 246.5 519.76 248.74 522 251.5 522 L 380.5 522 C 383.26 522 385.5 519.76 385.5 517 L 385.5 506.2 C 385.5 503.43 383.26 501.2 380.5 501.2 L 251.5 501.2 C 248.74 501.2 246.5 503.43 246.5 506.2 M 246.5 506.2"/></g><g style="fill: rgb(47,126,216);fill-opacity: 0.352941; stroke: none" transform="matrix(1,0,0,1,0,0)" clip-path="url(#clip-0)"><path d="M 261.34 511.6 C 261.34 513.72 259.62 515.44 257.5 515.44 C 255.38 515.44 253.66 513.72 253.66 511.6 C 253.66 509.48 255.38 507.76 257.5 507.76 C 259.62 507.76 261.34 509.48 261.34 511.6 M 261.34 511.6"/></g><g transform="matrix(1,0,0,1,0,0)"><text x="268.5" y="515.41" style="fill: rgb(39,75,109); font-family: sans-serif; font-size: 11px; font-weight: bold; " text-rendering="auto" clip-path="url(#clip-0)">Rows</text></g><g style="fill: rgb(255,0,0);fill-opacity: 0.352941; stroke: none" transform="matrix(1,0,0,1,0,0)" clip-path="url(#clip-0)"><path d="M 315.5 507.52 L 319.58 511.6 L 315.5 515.68 L 311.42 511.6 M 315.5 507.52"/></g><g transform="matrix(1,0,0,1,0,0)"><text x="326.5" y="515.41" style="fill: rgb(39,75,109); font-family: sans-serif; font-size: 11px; font-weight: bold; " text-rendering="auto" clip-path="url(#clip-0)">Columns</text></g><rect x="75" y="60" width="547" height="380" style="fill: rgb(255,255,255);fill-opacity: 1" transform="matrix(1,0,0,1,0,0)" clip-path="url(#clip-0)"/><line x1="75" y1="440" x2="622" y2="440" style="stroke-width: 1.0;stroke: rgb(192,208,224);stroke-opacity: 1;" transform="matrix(1,0,0,1,0,0)" clip-path="url(#clip-0)"/><g transform="matrix(1,0,0,1,0,0)"><text x="92.1" y="454.21" style="fill: rgb(102,102,102); font-family: sans-serif; font-size: 11px; font-weight: bold; " text-rendering="auto" clip-path="url(#clip-0)">-0.2</text></g><line x1="104.6" y1="445" x2="104.6" y2="440" style="stroke-width: 1.0;stroke: rgb(192,208,224);stroke-opacity: 1;" transform="matrix(1,0,0,1,0,0)" clip-path="url(#clip-0)"/><g transform="matrix(1,0,0,1,0,0)"><text x="155.83" y="454.21" style="fill: rgb(102,102,102); font-family: sans-serif; font-size: 11px; font-weight: bold; " text-rendering="auto" clip-path="url(#clip-0)">-0.1</text></g><line x1="168.33" y1="445" x2="168.33" y2="440" style="stroke-width: 1.0;stroke: rgb(192,208,224);stroke-opacity: 1;" transform="matrix(1,0,0,1,0,0)" clip-path="url(#clip-0)"/><g transform="matrix(1,0,0,1,0,0)"><text x="222.07" y="454.21" style="fill: rgb(102,102,102); font-family: sans-serif; font-size: 11px; font-weight: bold; " text-rendering="auto" clip-path="url(#clip-0)">0.0</text></g><line x1="232.07" y1="445" x2="232.07" y2="440" style="stroke-width: 1.0;stroke: rgb(192,208,224);stroke-opacity: 1;" transform="matrix(1,0,0,1,0,0)" clip-path="url(#clip-0)"/><g transform="matrix(1,0,0,1,0,0)"><text x="285.81" y="454.21" style="fill: rgb(102,102,102); font-family: sans-serif; font-size: 11px; font-weight: bold; " text-rendering="auto" clip-path="url(#clip-0)">0.1</text></g><line x1="295.81" y1="445" x2="295.81" y2="440" style="stroke-width: 1.0;stroke: rgb(192,208,224);stroke-opacity: 1;" transform="matrix(1,0,0,1,0,0)" clip-path="url(#clip-0)"/><g transform="matrix(1,0,0,1,0,0)"><text x="349.55" y="454.21" style="fill: rgb(102,102,102); font-family: sans-serif; font-size: 11px; font-weight: bold; " text-rendering="auto" clip-path="url(#clip-0)">0.2</text></g><line x1="359.55" y1="445" x2="359.55" y2="440" style="stroke-width: 1.0;stroke: rgb(192,208,224);stroke-opacity: 1;" transform="matrix(1,0,0,1,0,0)" clip-path="url(#clip-0)"/><g transform="matrix(1,0,0,1,0,0)"><text x="413.29" y="454.21" style="fill: rgb(102,102,102); font-family: sans-serif; font-size: 11px; font-weight: bold; " text-rendering="auto" clip-path="url(#clip-0)">0.3</text></g><line x1="423.29" y1="445" x2="423.29" y2="440" style="stroke-width: 1.0;stroke: rgb(192,208,224);stroke-opacity: 1;" transform="matrix(1,0,0,1,0,0)" clip-path="url(#clip-0)"/><g transform="matrix(1,0,0,1,0,0)"><text x="477.03" y="454.21" style="fill: rgb(102,102,102); font-family: sans-serif; font-size: 11px; font-weight: bold; " text-rendering="auto" clip-path="url(#clip-0)">0.4</text></g><line x1="487.03" y1="445" x2="487.03" y2="440" style="stroke-width: 1.0;stroke: rgb(192,208,224);stroke-opacity: 1;" transform="matrix(1,0,0,1,0,0)" clip-path="url(#clip-0)"/><g transform="matrix(1,0,0,1,0,0)"><text x="540.77" y="454.21" style="fill: rgb(102,102,102); font-family: sans-serif; font-size: 11px; font-weight: bold; " text-rendering="auto" clip-path="url(#clip-0)">0.5</text></g><line x1="550.77" y1="445" x2="550.77" y2="440" style="stroke-width: 1.0;stroke: rgb(192,208,224);stroke-opacity: 1;" transform="matrix(1,0,0,1,0,0)" clip-path="url(#clip-0)"/><g transform="matrix(1,0,0,1,0,0)"><text x="604.51" y="454.21" style="fill: rgb(102,102,102); font-family: sans-serif; font-size: 11px; font-weight: bold; " text-rendering="auto" clip-path="url(#clip-0)">0.6</text></g><line x1="614.51" y1="445" x2="614.51" y2="440" style="stroke-width: 1.0;stroke: rgb(192,208,224);stroke-opacity: 1;" transform="matrix(1,0,0,1,0,0)" clip-path="url(#clip-0)"/><g transform="matrix(1,0,0,1,0,0)"><text x="283.5" y="473.73" style="fill: rgb(77,117,158); font-family: sans-serif; font-size: 15px; font-weight: bold; " text-rendering="auto" clip-path="url(#clip-0)">Axis 1 (72.30%)</text></g><line x1="75" y1="60" x2="75" y2="440" style="stroke-width: 1.0;stroke: rgb(192,208,224);stroke-opacity: 1;" transform="matrix(1,0,0,1,0,0)" clip-path="url(#clip-0)"/><g transform="matrix(1,0,0,1,0,0)"><text x="36" y="432.55" style="fill: rgb(102,102,102); font-family: sans-serif; font-size: 11px; font-weight: bold; " text-rendering="auto" clip-path="url(#clip-0)">-0.25</text></g><line x1="70" y1="428.74" x2="75" y2="428.74" style="stroke-width: 1.0;stroke: rgb(192,208,224);stroke-opacity: 1;" transform="matrix(1,0,0,1,0,0)" clip-path="url(#clip-0)"/><g transform="matrix(1,0,0,1,0,0)"><text x="36" y="406.25" style="fill: rgb(102,102,102); font-family: sans-serif; font-size: 11px; font-weight: bold; " text-rendering="auto" clip-path="url(#clip-0)">-0.20</text></g><line x1="70" y1="402.44" x2="75" y2="402.44" style="stroke-width: 1.0;stroke: rgb(192,208,224);stroke-opacity: 1;" transform="matrix(1,0,0,1,0,0)" clip-path="url(#clip-0)"/><g transform="matrix(1,0,0,1,0,0)"><text x="36" y="379.95" style="fill: rgb(102,102,102); font-family: sans-serif; font-size: 11px; font-weight: bold; " text-rendering="auto" clip-path="url(#clip-0)">-0.15</text></g><line x1="70" y1="376.14" x2="75" y2="376.14" style="stroke-width: 1.0;stroke: rgb(192,208,224);stroke-opacity: 1;" transform="matrix(1,0,0,1,0,0)" clip-path="url(#clip-0)"/><g transform="matrix(1,0,0,1,0,0)"><text x="36" y="353.64" style="fill: rgb(102,102,102); font-family: sans-serif; font-size: 11px; font-weight: bold; " text-rendering="auto" clip-path="url(#clip-0)">-0.10</text></g><line x1="70" y1="349.84" x2="75" y2="349.84" style="stroke-width: 1.0;stroke: rgb(192,208,224);stroke-opacity: 1;" transform="matrix(1,0,0,1,0,0)" clip-path="url(#clip-0)"/><g transform="matrix(1,0,0,1,0,0)"><text x="36" y="327.34" style="fill: rgb(102,102,102); font-family: sans-serif; font-size: 11px; font-weight: bold; " text-rendering="auto" clip-path="url(#clip-0)">-0.05</text></g><line x1="70" y1="323.54" x2="75" y2="323.54" style="stroke-width: 1.0;stroke: rgb(192,208,224);stroke-opacity: 1;" transform="matrix(1,0,0,1,0,0)" clip-path="url(#clip-0)"/><g transform="matrix(1,0,0,1,0,0)"><text x="41" y="301.04" style="fill: rgb(102,102,102); font-family: sans-serif; font-size: 11px; font-weight: bold; " text-rendering="auto" clip-path="url(#clip-0)">0.00</text></g><line x1="70" y1="297.23" x2="75" y2="297.23" style="stroke-width: 1.0;stroke: rgb(192,208,224);stroke-opacity: 1;" transform="matrix(1,0,0,1,0,0)" clip-path="url(#clip-0)"/><g transform="matrix(1,0,0,1,0,0)"><text x="41" y="274.74" style="fill: rgb(102,102,102); font-family: sans-serif; font-size: 11px; font-weight: bold; " text-rendering="auto" clip-path="url(#clip-0)">0.05</text></g><line x1="70" y1="270.93" x2="75" y2="270.93" style="stroke-width: 1.0;stroke: rgb(192,208,224);stroke-opacity: 1;" transform="matrix(1,0,0,1,0,0)" clip-path="url(#clip-0)"/><g transform="matrix(1,0,0,1,0,0)"><text x="41" y="248.44" style="fill: rgb(102,102,102); font-family: sans-serif; font-size: 11px; font-weight: bold; " text-rendering="auto" clip-path="url(#clip-0)">0.10</text></g><line x1="70" y1="244.63" x2="75" y2="244.63" style="stroke-width: 1.0;stroke: rgb(192,208,224);stroke-opacity: 1;" transform="matrix(1,0,0,1,0,0)" clip-path="url(#clip-0)"/><g transform="matrix(1,0,0,1,0,0)"><text x="41" y="222.14" style="fill: rgb(102,102,102); font-family: sans-serif; font-size: 11px; font-weight: bold; " text-rendering="auto" clip-path="url(#clip-0)">0.15</text></g><line x1="70" y1="218.33" x2="75" y2="218.33" style="stroke-width: 1.0;stroke: rgb(192,208,224);stroke-opacity: 1;" transform="matrix(1,0,0,1,0,0)" clip-path="url(#clip-0)"/><g transform="matrix(1,0,0,1,0,0)"><text x="41" y="195.84" style="fill: rgb(102,102,102); font-family: sans-serif; font-size: 11px; font-weight: bold; " text-rendering="auto" clip-path="url(#clip-0)">0.20</text></g><line x1="70" y1="192.03" x2="75" y2="192.03" style="stroke-width: 1.0;stroke: rgb(192,208,224);stroke-opacity: 1;" transform="matrix(1,0,0,1,0,0)" clip-path="url(#clip-0)"/><g transform="matrix(1,0,0,1,0,0)"><text x="41" y="169.53" style="fill: rgb(102,102,102); font-family: sans-serif; font-size: 11px; font-weight: bold; " text-rendering="auto" clip-path="url(#clip-0)">0.25</text></g><line x1="70" y1="165.73" x2="75" y2="165.73" style="stroke-width: 1.0;stroke: rgb(192,208,224);stroke-opacity: 1;" transform="matrix(1,0,0,1,0,0)" clip-path="url(#clip-0)"/><g transform="matrix(1,0,0,1,0,0)"><text x="41" y="143.23" style="fill: rgb(102,102,102); font-family: sans-serif; font-size: 11px; font-weight: bold; " text-rendering="auto" clip-path="url(#clip-0)">0.30</text></g><line x1="70" y1="139.43" x2="75" y2="139.43" style="stroke-width: 1.0;stroke: rgb(192,208,224);stroke-opacity: 1;" transform="matrix(1,0,0,1,0,0)" clip-path="url(#clip-0)"/><g transform="matrix(1,0,0,1,0,0)"><text x="41" y="116.93" style="fill: rgb(102,102,102); font-family: sans-serif; font-size: 11px; font-weight: bold; " text-rendering="auto" clip-path="url(#clip-0)">0.35</text></g><line x1="70" y1="113.12" x2="75" y2="113.12" style="stroke-width: 1.0;stroke: rgb(192,208,224);stroke-opacity: 1;" transform="matrix(1,0,0,1,0,0)" clip-path="url(#clip-0)"/><g transform="matrix(1,0,0,1,0,0)"><text x="41" y="90.63" style="fill: rgb(102,102,102); font-family: sans-serif; font-size: 11px; font-weight: bold; " text-rendering="auto" clip-path="url(#clip-0)">0.40</text></g><line x1="70" y1="86.82" x2="75" y2="86.82" style="stroke-width: 1.0;stroke: rgb(192,208,224);stroke-opacity: 1;" transform="matrix(1,0,0,1,0,0)" clip-path="url(#clip-0)"/><g transform="matrix(1,0,0,1,0,0)"><text x="41" y="64.33" style="fill: rgb(102,102,102); font-family: sans-serif; font-size: 11px; font-weight: bold; " text-rendering="auto" clip-path="url(#clip-0)">0.45</text></g><line x1="70" y1="60.52" x2="75" y2="60.52" style="stroke-width: 1.0;stroke: rgb(192,208,224);stroke-opacity: 1;" transform="matrix(1,0,0,1,0,0)" clip-path="url(#clip-0)"/><g transform="matrix(0,-1,1,0,-227.730469,272.269531)"><text x="-42.73" y="255.19" style="fill: rgb(77,117,158); font-family: sans-serif; font-size: 15px; font-weight: bold; " text-rendering="auto" clip-path="url(#clip-1)">Axis 2 (17.22%)</text></g><line x1="104.6" y1="60" x2="104.6" y2="440" style="stroke-width: 0.5;stroke: rgb(192,192,192);stroke-opacity: 1;stroke-dasharray: 2.0, 2.0;" transform="matrix(1,0,0,1,0,0)" clip-path="url(#clip-2)"/><line x1="168.33" y1="60" x2="168.33" y2="440" style="stroke-width: 0.5;stroke: rgb(192,192,192);stroke-opacity: 1;stroke-dasharray: 2.0, 2.0;" transform="matrix(1,0,0,1,0,0)" clip-path="url(#clip-2)"/><line x1="232.07" y1="60" x2="232.07" y2="440" style="stroke-width: 0.5;stroke: rgb(192,192,192);stroke-opacity: 1;stroke-dasharray: 2.0, 2.0;" transform="matrix(1,0,0,1,0,0)" clip-path="url(#clip-2)"/><line x1="295.81" y1="60" x2="295.81" y2="440" style="stroke-width: 0.5;stroke: rgb(192,192,192);stroke-opacity: 1;stroke-dasharray: 2.0, 2.0;" transform="matrix(1,0,0,1,0,0)" clip-path="url(#clip-2)"/><line x1="359.55" y1="60" x2="359.55" y2="440" style="stroke-width: 0.5;stroke: rgb(192,192,192);stroke-opacity: 1;stroke-dasharray: 2.0, 2.0;" transform="matrix(1,0,0,1,0,0)" clip-path="url(#clip-2)"/><line x1="423.29" y1="60" x2="423.29" y2="440" style="stroke-width: 0.5;stroke: rgb(192,192,192);stroke-opacity: 1;stroke-dasharray: 2.0, 2.0;" transform="matrix(1,0,0,1,0,0)" clip-path="url(#clip-2)"/><line x1="487.03" y1="60" x2="487.03" y2="440" style="stroke-width: 0.5;stroke: rgb(192,192,192);stroke-opacity: 1;stroke-dasharray: 2.0, 2.0;" transform="matrix(1,0,0,1,0,0)" clip-path="url(#clip-2)"/><line x1="550.77" y1="60" x2="550.77" y2="440" style="stroke-width: 0.5;stroke: rgb(192,192,192);stroke-opacity: 1;stroke-dasharray: 2.0, 2.0;" transform="matrix(1,0,0,1,0,0)" clip-path="url(#clip-2)"/><line x1="614.51" y1="60" x2="614.51" y2="440" style="stroke-width: 0.5;stroke: rgb(192,192,192);stroke-opacity: 1;stroke-dasharray: 2.0, 2.0;" transform="matrix(1,0,0,1,0,0)" clip-path="url(#clip-2)"/><line x1="232.07" y1="60" x2="232.07" y2="440" style="stroke-width: 0.5;stroke: rgb(134,145,156);stroke-opacity: 1;" transform="matrix(1,0,0,1,0,0)" clip-path="url(#clip-2)"/><line x1="75" y1="428.74" x2="622" y2="428.74" style="stroke-width: 0.5;stroke: rgb(192,192,192);stroke-opacity: 1;stroke-dasharray: 2.0, 2.0;" transform="matrix(1,0,0,1,0,0)" clip-path="url(#clip-2)"/><line x1="75" y1="402.44" x2="622" y2="402.44" style="stroke-width: 0.5;stroke: rgb(192,192,192);stroke-opacity: 1;stroke-dasharray: 2.0, 2.0;" transform="matrix(1,0,0,1,0,0)" clip-path="url(#clip-2)"/><line x1="75" y1="376.14" x2="622" y2="376.14" style="stroke-width: 0.5;stroke: rgb(192,192,192);stroke-opacity: 1;stroke-dasharray: 2.0, 2.0;" transform="matrix(1,0,0,1,0,0)" clip-path="url(#clip-2)"/><line x1="75" y1="349.84" x2="622" y2="349.84" style="stroke-width: 0.5;stroke: rgb(192,192,192);stroke-opacity: 1;stroke-dasharray: 2.0, 2.0;" transform="matrix(1,0,0,1,0,0)" clip-path="url(#clip-2)"/><line x1="75" y1="323.54" x2="622" y2="323.54" style="stroke-width: 0.5;stroke: rgb(192,192,192);stroke-opacity: 1;stroke-dasharray: 2.0, 2.0;" transform="matrix(1,0,0,1,0,0)" clip-path="url(#clip-2)"/><line x1="75" y1="270.93" x2="622" y2="270.93" style="stroke-width: 0.5;stroke: rgb(192,192,192);stroke-opacity: 1;stroke-dasharray: 2.0, 2.0;" transform="matrix(1,0,0,1,0,0)" clip-path="url(#clip-2)"/><line x1="75" y1="244.63" x2="622" y2="244.63" style="stroke-width: 0.5;stroke: rgb(192,192,192);stroke-opacity: 1;stroke-dasharray: 2.0, 2.0;" transform="matrix(1,0,0,1,0,0)" clip-path="url(#clip-2)"/><line x1="75" y1="218.33" x2="622" y2="218.33" style="stroke-width: 0.5;stroke: rgb(192,192,192);stroke-opacity: 1;stroke-dasharray: 2.0, 2.0;" transform="matrix(1,0,0,1,0,0)" clip-path="url(#clip-2)"/><line x1="75" y1="192.03" x2="622" y2="192.03" style="stroke-width: 0.5;stroke: rgb(192,192,192);stroke-opacity: 1;stroke-dasharray: 2.0, 2.0;" transform="matrix(1,0,0,1,0,0)" clip-path="url(#clip-2)"/><line x1="75" y1="165.73" x2="622" y2="165.73" style="stroke-width: 0.5;stroke: rgb(192,192,192);stroke-opacity: 1;stroke-dasharray: 2.0, 2.0;" transform="matrix(1,0,0,1,0,0)" clip-path="url(#clip-2)"/><line x1="75" y1="139.43" x2="622" y2="139.43" style="stroke-width: 0.5;stroke: rgb(192,192,192);stroke-opacity: 1;stroke-dasharray: 2.0, 2.0;" transform="matrix(1,0,0,1,0,0)" clip-path="url(#clip-2)"/><line x1="75" y1="113.12" x2="622" y2="113.12" style="stroke-width: 0.5;stroke: rgb(192,192,192);stroke-opacity: 1;stroke-dasharray: 2.0, 2.0;" transform="matrix(1,0,0,1,0,0)" clip-path="url(#clip-2)"/><line x1="75" y1="86.82" x2="622" y2="86.82" style="stroke-width: 0.5;stroke: rgb(192,192,192);stroke-opacity: 1;stroke-dasharray: 2.0, 2.0;" transform="matrix(1,0,0,1,0,0)" clip-path="url(#clip-2)"/><line x1="75" y1="60.52" x2="622" y2="60.52" style="stroke-width: 0.5;stroke: rgb(192,192,192);stroke-opacity: 1;stroke-dasharray: 2.0, 2.0;" transform="matrix(1,0,0,1,0,0)" clip-path="url(#clip-2)"/><line x1="75" y1="297.23" x2="622" y2="297.23" style="stroke-width: 0.5;stroke: rgb(134,145,156);stroke-opacity: 1;" transform="matrix(1,0,0,1,0,0)" clip-path="url(#clip-2)"/><g style="fill: rgb(255,0,0);fill-opacity: 0.352941; stroke: none" transform="matrix(1,0,0,1,0,0)" clip-path="url(#clip-2)"><path d="M 99.86 137.84 L 103.94 141.92 L 99.86 146 L 95.78 141.92 M 99.86 137.84"/></g><g style="stroke-width: 1.0;stroke: rgb(255,0,0);stroke-opacity: 0.352941; fill: none" transform="matrix(1,0,0,1,0,0)" clip-path="url(#clip-2)"><path d="M 99.86 137.84 L 103.94 141.92 L 99.86 146 L 95.78 141.92 M 99.86 137.84"/></g><g transform="matrix(1,0,0,1,0,0)"><text x="95.36" y="135.86" style="fill: rgb(51,51,51); font-family: sans-serif; font-size: 11px; " text-rendering="auto" clip-path="url(#clip-2)">ce</text></g><g style="fill: rgb(255,0,0);fill-opacity: 0.352941; stroke: none" transform="matrix(1,0,0,1,0,0)" clip-path="url(#clip-2)"><path d="M 119.68 354 L 123.76 358.08 L 119.68 362.16 L 115.6 358.08 M 119.68 354"/></g><g style="stroke-width: 1.0;stroke: rgb(255,0,0);stroke-opacity: 0.352941; fill: none" transform="matrix(1,0,0,1,0,0)" clip-path="url(#clip-2)"><path d="M 119.68 354 L 123.76 358.08 L 119.68 362.16 L 115.6 358.08 M 119.68 354"/></g><g transform="matrix(1,0,0,1,0,0)"><text x="103.18" y="352.02" style="fill: rgb(51,51,51); font-family: sans-serif; font-size: 11px; " text-rendering="auto" clip-path="url(#clip-2)">xinhua</text></g><g style="fill: rgb(255,0,0);fill-opacity: 0.352941; stroke: none" transform="matrix(1,0,0,1,0,0)" clip-path="url(#clip-2)"><path d="M 597.14 285.64 L 601.22 289.72 L 597.14 293.8 L 593.06 289.72 M 597.14 285.64"/></g><g style="stroke-width: 1.0;stroke: rgb(255,0,0);stroke-opacity: 0.352941; fill: none" transform="matrix(1,0,0,1,0,0)" clip-path="url(#clip-2)"><path d="M 597.14 285.64 L 601.22 289.72 L 597.14 293.8 L 593.06 289.72 M 597.14 285.64"/></g><g transform="matrix(1,0,0,1,0,0)"><text x="576.64" y="283.66" style="fill: rgb(51,51,51); font-family: sans-serif; font-size: 11px; " text-rendering="auto" clip-path="url(#clip-2)">huanqiu</text></g><g style="fill: rgb(255,0,0);fill-opacity: 0.352941; stroke: none" transform="matrix(1,0,0,1,0,0)" clip-path="url(#clip-2)"><path d="M 159.43 334.63 L 163.51 338.71 L 159.43 342.79 L 155.35 338.71 M 159.43 334.63"/></g><g style="stroke-width: 1.0;stroke: rgb(255,0,0);stroke-opacity: 0.352941; fill: none" transform="matrix(1,0,0,1,0,0)" clip-path="url(#clip-2)"><path d="M 159.43 334.63 L 163.51 338.71 L 159.43 342.79 L 155.35 338.71 M 159.43 334.63"/></g><g transform="matrix(1,0,0,1,0,0)"><text x="142.43" y="332.65" style="fill: rgb(51,51,51); font-family: sans-serif; font-size: 11px; " text-rendering="auto" clip-path="url(#clip-2)">people</text></g><line x1="87.12" y1="368.6" x2="87.12" y2="131.4" style="stroke-width: 0.5;stroke: rgb(128,128,128);stroke-opacity: 1;stroke-dasharray: 2.0;" transform="matrix(1,0,0,1,0,0)" clip-path="url(#clip-2)"/><line x1="609.88" y1="368.6" x2="609.88" y2="131.4" style="stroke-width: 0.5;stroke: rgb(128,128,128);stroke-opacity: 1;stroke-dasharray: 2.0;" transform="matrix(1,0,0,1,0,0)" clip-path="url(#clip-2)"/><line x1="87.12" y1="368.6" x2="609.88" y2="368.6" style="stroke-width: 0.5;stroke: rgb(128,128,128);stroke-opacity: 1;stroke-dasharray: 2.0;" transform="matrix(1,0,0,1,0,0)" clip-path="url(#clip-2)"/><line x1="87.12" y1="131.4" x2="609.88" y2="131.4" style="stroke-width: 0.5;stroke: rgb(128,128,128);stroke-opacity: 1;stroke-dasharray: 2.0;" transform="matrix(1,0,0,1,0,0)" clip-path="url(#clip-2)"/></svg>
