<!DOCTYPE svg PUBLIC "-//W3C//DTD SVG 1.1//EN" "http://www.w3.org/Graphics/SVG/1.1/DTD/svg11.dtd">
<svg style="stroke-linecap:square;" xmlns="http://www.w3.org/2000/svg" xmlns:xlink="http://www.w3.org/1999/xlink" width="904" height="532">
<defs><clipPath id="clip-0"><path d="M 0 0 L 904 0 L 904 532 L 0 532 L 0 0 M 0 0"/></clipPath>
<clipPath id="clip-1"><path d="M 656.33 279.67 L 656.33 1183.67 L 124.33 1183.67 L 124.33 279.67 L 656.33 279.67 M 656.33 279.67"/></clipPath>
<clipPath id="clip-2"><path d="M 907 29 L 907 933 L 375 933 L 375 29 L 907 29 M 907 29"/></clipPath>
<clipPath id="clip-3"><path d="M 1157.67 -221.67 L 1157.67 682.33 L 625.67 682.33 L 625.67 -221.67 L 1157.67 -221.67 M 1157.67 -221.67"/></clipPath>
<clipPath id="clip-4"><path d="M 270.77 226.23 L 270.77 1130.23 L -261.23 1130.23 L -261.23 226.23 L 270.77 226.23 M 270.77 226.23"/></clipPath>
<clipPath id="clip-5"><path d="M 63 41 L 63 456 L 815 456 L 815 41 M 63 41"/></clipPath>
</defs>
<rect x="0" y="0" width="904" height="532" style="fill: rgb(255,255,255);fill-opacity: 1" transform="matrix(1,0,0,1,0,0)" clip-path="url(#clip-0)"/><g transform="matrix(1,0,0,1,0,0)"><text x="429.5" y="25.85" style="fill: rgb(75,75,109); font-family: sans-serif; font-size: 16px; font-weight: bold; " text-rendering="auto" clip-path="url(#clip-0)">word</text></g><rect x="835" y="99.31" width="59" height="364" style="fill: rgb(255,255,255);fill-opacity: 1" transform="matrix(1,0,0,1,0,0)" clip-path="url(#clip-0)"/><g style="stroke-width: 1.0;stroke: rgb(128,128,128);stroke-opacity: 1; fill: none" transform="matrix(1,0,0,1,0,0)" clip-path="url(#clip-0)"><path d="M 835 104.31 L 835 458.31 C 835 461.07 837.24 463.31 840 463.31 L 889 463.31 C 891.76 463.31 894 461.07 894 458.31 L 894 104.31 C 894 101.55 891.76 99.31 889 99.31 L 840 99.31 C 837.24 99.31 835 101.55 835 104.31 M 835 104.31"/></g><g style="fill: rgb(47,126,216);fill-opacity: 1; stroke: none" transform="matrix(1,0,0,1,0,0)" clip-path="url(#clip-0)"><path d="M 839 105.81 L 839 114.81 C 839 116.19 840.12 117.31 841.5 117.31 L 849.5 117.31 C 850.88 117.31 852 116.19 852 114.81 L 852 105.81 C 852 104.43 850.88 103.31 849.5 103.31 L 841.5 103.31 C 840.12 103.31 839 104.43 839 105.81 M 839 105.81"/></g><g transform="matrix(1,0,0,1,0,0)"><text x="856" y="114.12" style="fill: rgb(39,75,109); font-family: sans-serif; font-size: 11px; font-weight: bold; " text-rendering="auto" clip-path="url(#clip-0)">意大利</text></g><g style="fill: rgb(13,35,58);fill-opacity: 1; stroke: none" transform="matrix(1,0,0,1,0,0)" clip-path="url(#clip-0)"><path d="M 839 123.81 L 839 132.81 C 839 134.19 840.12 135.31 841.5 135.31 L 849.5 135.31 C 850.88 135.31 852 134.19 852 132.81 L 852 123.81 C 852 122.43 850.88 121.31 849.5 121.31 L 841.5 121.31 C 840.12 121.31 839 122.43 839 123.81 M 839 123.81"/></g><g transform="matrix(1,0,0,1,0,0)"><text x="856" y="132.12" style="fill: rgb(39,75,109); font-family: sans-serif; font-size: 11px; font-weight: bold; " text-rendering="auto" clip-path="url(#clip-0)">大使</text></g><g style="fill: rgb(139,188,33);fill-opacity: 1; stroke: none" transform="matrix(1,0,0,1,0,0)" clip-path="url(#clip-0)"><path d="M 839 141.81 L 839 150.81 C 839 152.19 840.12 153.31 841.5 153.31 L 849.5 153.31 C 850.88 153.31 852 152.19 852 150.81 L 852 141.81 C 852 140.43 850.88 139.31 849.5 139.31 L 841.5 139.31 C 840.12 139.31 839 140.43 839 141.81 M 839 141.81"/></g><g transform="matrix(1,0,0,1,0,0)"><text x="856" y="150.12" style="fill: rgb(39,75,109); font-family: sans-serif; font-size: 11px; font-weight: bold; " text-rendering="auto" clip-path="url(#clip-0)">召回</text></g><g style="fill: rgb(145,0,0);fill-opacity: 1; stroke: none" transform="matrix(1,0,0,1,0,0)" clip-path="url(#clip-0)"><path d="M 839 159.81 L 839 168.81 C 839 170.19 840.12 171.31 841.5 171.31 L 849.5 171.31 C 850.88 171.31 852 170.19 852 168.81 L 852 159.81 C 852 158.43 850.88 157.31 849.5 157.31 L 841.5 157.31 C 840.12 157.31 839 158.43 839 159.81 M 839 159.81"/></g><g transform="matrix(1,0,0,1,0,0)"><text x="856" y="168.12" style="fill: rgb(39,75,109); font-family: sans-serif; font-size: 11px; font-weight: bold; " text-rendering="auto" clip-path="url(#clip-0)">公投</text></g><g style="fill: rgb(255,85,85);fill-opacity: 1; stroke: none" transform="matrix(1,0,0,1,0,0)" clip-path="url(#clip-0)"><path d="M 839 177.81 L 839 186.81 C 839 188.19 840.12 189.31 841.5 189.31 L 849.5 189.31 C 850.88 189.31 852 188.19 852 186.81 L 852 177.81 C 852 176.43 850.88 175.31 849.5 175.31 L 841.5 175.31 C 840.12 175.31 839 176.43 839 177.81 M 839 177.81"/></g><g transform="matrix(1,0,0,1,0,0)"><text x="856" y="186.12" style="fill: rgb(39,75,109); font-family: sans-serif; font-size: 11px; font-weight: bold; " text-rendering="auto" clip-path="url(#clip-0)">法方</text></g><g style="fill: rgb(85,85,255);fill-opacity: 1; stroke: none" transform="matrix(1,0,0,1,0,0)" clip-path="url(#clip-0)"><path d="M 839 195.81 L 839 204.81 C 839 206.19 840.12 207.31 841.5 207.31 L 849.5 207.31 C 850.88 207.31 852 206.19 852 204.81 L 852 195.81 C 852 194.43 850.88 193.31 849.5 193.31 L 841.5 193.31 C 840.12 193.31 839 194.43 839 195.81 M 839 195.81"/></g><g transform="matrix(1,0,0,1,0,0)"><text x="856" y="204.12" style="fill: rgb(39,75,109); font-family: sans-serif; font-size: 11px; font-weight: bold; " text-rendering="auto" clip-path="url(#clip-0)">迪马</text></g><g style="fill: rgb(85,255,85);fill-opacity: 1; stroke: none" transform="matrix(1,0,0,1,0,0)" clip-path="url(#clip-0)"><path d="M 839 213.81 L 839 222.81 C 839 224.19 840.12 225.31 841.5 225.31 L 849.5 225.31 C 850.88 225.31 852 224.19 852 222.81 L 852 213.81 C 852 212.43 850.88 211.31 849.5 211.31 L 841.5 211.31 C 840.12 211.31 839 212.43 839 213.81 M 839 213.81"/></g><g transform="matrix(1,0,0,1,0,0)"><text x="856" y="222.12" style="fill: rgb(39,75,109); font-family: sans-serif; font-size: 11px; font-weight: bold; " text-rendering="auto" clip-path="url(#clip-0)">全民</text></g><g style="fill: rgb(255,255,85);fill-opacity: 1; stroke: none" transform="matrix(1,0,0,1,0,0)" clip-path="url(#clip-0)"><path d="M 839 231.81 L 839 240.81 C 839 242.19 840.12 243.31 841.5 243.31 L 849.5 243.31 C 850.88 243.31 852 242.19 852 240.81 L 852 231.81 C 852 230.43 850.88 229.31 849.5 229.31 L 841.5 229.31 C 840.12 229.31 839 230.43 839 231.81 M 839 231.81"/></g><g transform="matrix(1,0,0,1,0,0)"><text x="856" y="240.12" style="fill: rgb(39,75,109); font-family: sans-serif; font-size: 11px; font-weight: bold; " text-rendering="auto" clip-path="url(#clip-0)">前极</text></g><g style="fill: rgb(255,85,255);fill-opacity: 1; stroke: none" transform="matrix(1,0,0,1,0,0)" clip-path="url(#clip-0)"><path d="M 839 249.81 L 839 258.81 C 839 260.19 840.12 261.31 841.5 261.31 L 849.5 261.31 C 850.88 261.31 852 260.19 852 258.81 L 852 249.81 C 852 248.43 850.88 247.31 849.5 247.31 L 841.5 247.31 C 840.12 247.31 839 248.43 839 249.81 M 839 249.81"/></g><g transform="matrix(1,0,0,1,0,0)"><text x="856" y="258.12" style="fill: rgb(39,75,109); font-family: sans-serif; font-size: 11px; font-weight: bold; " text-rendering="auto" clip-path="url(#clip-0)">意方</text></g><g style="fill: rgb(85,255,255);fill-opacity: 1; stroke: none" transform="matrix(1,0,0,1,0,0)" clip-path="url(#clip-0)"><path d="M 839 267.81 L 839 276.81 C 839 278.19 840.12 279.31 841.5 279.31 L 849.5 279.31 C 850.88 279.31 852 278.19 852 276.81 L 852 267.81 C 852 266.43 850.88 265.31 849.5 265.31 L 841.5 265.31 C 840.12 265.31 839 266.43 839 267.81 M 839 267.81"/></g><g transform="matrix(1,0,0,1,0,0)"><text x="856" y="276.12" style="fill: rgb(39,75,109); font-family: sans-serif; font-size: 11px; font-weight: bold; " text-rendering="auto" clip-path="url(#clip-0)">武装人员</text></g><g style="fill: rgb(255,175,175);fill-opacity: 1; stroke: none" transform="matrix(1,0,0,1,0,0)" clip-path="url(#clip-0)"><path d="M 839 285.81 L 839 294.81 C 839 296.19 840.12 297.31 841.5 297.31 L 849.5 297.31 C 850.88 297.31 852 296.19 852 294.81 L 852 285.81 C 852 284.43 850.88 283.31 849.5 283.31 L 841.5 283.31 C 840.12 283.31 839 284.43 839 285.81 M 839 285.81"/></g><g transform="matrix(1,0,0,1,0,0)"><text x="856" y="294.12" style="fill: rgb(39,75,109); font-family: sans-serif; font-size: 11px; font-weight: bold; " text-rendering="auto" clip-path="url(#clip-0)">驻意</text></g><g style="fill: rgb(128,128,128);fill-opacity: 1; stroke: none" transform="matrix(1,0,0,1,0,0)" clip-path="url(#clip-0)"><path d="M 839 303.81 L 839 312.81 C 839 314.19 840.12 315.31 841.5 315.31 L 849.5 315.31 C 850.88 315.31 852 314.19 852 312.81 L 852 303.81 C 852 302.43 850.88 301.31 849.5 301.31 L 841.5 301.31 C 840.12 301.31 839 302.43 839 303.81 M 839 303.81"/></g><g transform="matrix(1,0,0,1,0,0)"><text x="856" y="312.12" style="fill: rgb(39,75,109); font-family: sans-serif; font-size: 11px; font-weight: bold; " text-rendering="auto" clip-path="url(#clip-0)">萨尔维尼</text></g><g style="fill: rgb(192,0,0);fill-opacity: 1; stroke: none" transform="matrix(1,0,0,1,0,0)" clip-path="url(#clip-0)"><path d="M 839 321.81 L 839 330.81 C 839 332.19 840.12 333.31 841.5 333.31 L 849.5 333.31 C 850.88 333.31 852 332.19 852 330.81 L 852 321.81 C 852 320.43 850.88 319.31 849.5 319.31 L 841.5 319.31 C 840.12 319.31 839 320.43 839 321.81 M 839 321.81"/></g><g transform="matrix(1,0,0,1,0,0)"><text x="856" y="330.12" style="fill: rgb(39,75,109); font-family: sans-serif; font-size: 11px; font-weight: bold; " text-rendering="auto" clip-path="url(#clip-0)">欧洲议会</text></g><g style="fill: rgb(0,0,192);fill-opacity: 1; stroke: none" transform="matrix(1,0,0,1,0,0)" clip-path="url(#clip-0)"><path d="M 839 339.81 L 839 348.81 C 839 350.19 840.12 351.31 841.5 351.31 L 849.5 351.31 C 850.88 351.31 852 350.19 852 348.81 L 852 339.81 C 852 338.43 850.88 337.31 849.5 337.31 L 841.5 337.31 C 840.12 337.31 839 338.43 839 339.81 M 839 339.81"/></g><g transform="matrix(1,0,0,1,0,0)"><text x="856" y="348.12" style="fill: rgb(39,75,109); font-family: sans-serif; font-size: 11px; font-weight: bold; " text-rendering="auto" clip-path="url(#clip-0)">法意</text></g><g style="fill: rgb(0,192,0);fill-opacity: 1; stroke: none" transform="matrix(1,0,0,1,0,0)" clip-path="url(#clip-0)"><path d="M 839 357.81 L 839 366.81 C 839 368.19 840.12 369.31 841.5 369.31 L 849.5 369.31 C 850.88 369.31 852 368.19 852 366.81 L 852 357.81 C 852 356.43 850.88 355.31 849.5 355.31 L 841.5 355.31 C 840.12 355.31 839 356.43 839 357.81 M 839 357.81"/></g><g transform="matrix(1,0,0,1,0,0)"><text x="856" y="366.12" style="fill: rgb(39,75,109); font-family: sans-serif; font-size: 11px; font-weight: bold; " text-rendering="auto" clip-path="url(#clip-0)">高铁</text></g><g style="fill: rgb(192,192,0);fill-opacity: 1; stroke: none" transform="matrix(1,0,0,1,0,0)" clip-path="url(#clip-0)"><path d="M 839 375.81 L 839 384.81 C 839 386.19 840.12 387.31 841.5 387.31 L 849.5 387.31 C 850.88 387.31 852 386.19 852 384.81 L 852 375.81 C 852 374.43 850.88 373.31 849.5 373.31 L 841.5 373.31 C 840.12 373.31 839 374.43 839 375.81 M 839 375.81"/></g><g transform="matrix(1,0,0,1,0,0)"><text x="856" y="384.12" style="fill: rgb(39,75,109); font-family: sans-serif; font-size: 11px; font-weight: bold; " text-rendering="auto" clip-path="url(#clip-0)">两国</text></g><g style="fill: rgb(192,0,192);fill-opacity: 1; stroke: none" transform="matrix(1,0,0,1,0,0)" clip-path="url(#clip-0)"><path d="M 839 393.81 L 839 402.81 C 839 404.19 840.12 405.31 841.5 405.31 L 849.5 405.31 C 850.88 405.31 852 404.19 852 402.81 L 852 393.81 C 852 392.43 850.88 391.31 849.5 391.31 L 841.5 391.31 C 840.12 391.31 839 392.43 839 393.81 M 839 393.81"/></g><g transform="matrix(1,0,0,1,0,0)"><text x="856" y="402.12" style="fill: rgb(39,75,109); font-family: sans-serif; font-size: 11px; font-weight: bold; " text-rendering="auto" clip-path="url(#clip-0)">引渡</text></g><g style="fill: rgb(0,192,192);fill-opacity: 1; stroke: none" transform="matrix(1,0,0,1,0,0)" clip-path="url(#clip-0)"><path d="M 839 411.81 L 839 420.81 C 839 422.19 840.12 423.31 841.5 423.31 L 849.5 423.31 C 850.88 423.31 852 422.19 852 420.81 L 852 411.81 C 852 410.43 850.88 409.31 849.5 409.31 L 841.5 409.31 C 840.12 409.31 839 410.43 839 411.81 M 839 411.81"/></g><g transform="matrix(1,0,0,1,0,0)"><text x="856" y="420.12" style="fill: rgb(39,75,109); font-family: sans-serif; font-size: 11px; font-weight: bold; " text-rendering="auto" clip-path="url(#clip-0)">时机</text></g><g style="fill: rgb(64,64,64);fill-opacity: 1; stroke: none" transform="matrix(1,0,0,1,0,0)" clip-path="url(#clip-0)"><path d="M 839 429.81 L 839 438.81 C 839 440.19 840.12 441.31 841.5 441.31 L 849.5 441.31 C 850.88 441.31 852 440.19 852 438.81 L 852 429.81 C 852 428.43 850.88 427.31 849.5 427.31 L 841.5 427.31 C 840.12 427.31 839 428.43 839 429.81 M 839 429.81"/></g><g transform="matrix(1,0,0,1,0,0)"><text x="856" y="438.12" style="fill: rgb(39,75,109); font-family: sans-serif; font-size: 11px; font-weight: bold; " text-rendering="auto" clip-path="url(#clip-0)">做法</text></g><g style="fill: rgb(255,64,64);fill-opacity: 1; stroke: none" transform="matrix(1,0,0,1,0,0)" clip-path="url(#clip-0)"><path d="M 839 447.81 L 839 456.81 C 839 458.19 840.12 459.31 841.5 459.31 L 849.5 459.31 C 850.88 459.31 852 458.19 852 456.81 L 852 447.81 C 852 446.43 850.88 445.31 849.5 445.31 L 841.5 445.31 C 840.12 445.31 839 446.43 839 447.81 M 839 447.81"/></g><g transform="matrix(1,0,0,1,0,0)"><text x="856" y="456.12" style="fill: rgb(39,75,109); font-family: sans-serif; font-size: 11px; font-weight: bold; " text-rendering="auto" clip-path="url(#clip-0)">受访者</text></g><rect x="63" y="41" width="752" height="415" style="fill: rgb(255,255,255);fill-opacity: 1" transform="matrix(1,0,0,1,0,0)" clip-path="url(#clip-0)"/><line x1="63" y1="456" x2="815" y2="456" style="stroke-width: 1.0;stroke: rgb(192,208,224);stroke-opacity: 1;" transform="matrix(1,0,0,1,0,0)" clip-path="url(#clip-0)"/><g transform="matrix(0,-1,1,0,-279.666672,656.333328)"><text x="156.33" y="471.81" style="fill: rgb(102,102,102); font-family: sans-serif; font-size: 11px; font-weight: bold; " text-rendering="auto" clip-path="url(#clip-1)">2018</text></g><line x1="313.67" y1="461" x2="313.67" y2="456" style="stroke-width: 1.0;stroke: rgb(192,208,224);stroke-opacity: 1;" transform="matrix(1,0,0,1,0,0)" clip-path="url(#clip-0)"/><line x1="63" y1="461" x2="63" y2="456" style="stroke-width: 1.0;stroke: rgb(192,208,224);stroke-opacity: 1;" transform="matrix(1,0,0,1,0,0)" clip-path="url(#clip-0)"/><g transform="matrix(0,-1,1,0,-29,907)"><text x="412" y="471.81" style="fill: rgb(102,102,102); font-family: sans-serif; font-size: 11px; font-weight: bold; " text-rendering="auto" clip-path="url(#clip-2)">janv</text></g><line x1="564.33" y1="461" x2="564.33" y2="456" style="stroke-width: 1.0;stroke: rgb(192,208,224);stroke-opacity: 1;" transform="matrix(1,0,0,1,0,0)" clip-path="url(#clip-0)"/><g transform="matrix(0,-1,1,0,221.666687,1157.666687)"><text x="669.67" y="471.81" style="fill: rgb(102,102,102); font-family: sans-serif; font-size: 11px; font-weight: bold; " text-rendering="auto" clip-path="url(#clip-3)">fev</text></g><line x1="815" y1="461" x2="815" y2="456" style="stroke-width: 1.0;stroke: rgb(192,208,224);stroke-opacity: 1;" transform="matrix(1,0,0,1,0,0)" clip-path="url(#clip-0)"/><g transform="matrix(1,0,0,1,0,0)"><text x="421.5" y="514.92" style="fill: rgb(77,117,158); font-family: sans-serif; font-size: 15px; font-weight: bold; " text-rendering="auto" clip-path="url(#clip-0)">Part</text></g><g transform="matrix(1,0,0,1,0,0)"><text x="36" y="430.65" style="fill: rgb(102,102,102); font-family: sans-serif; font-size: 11px; font-weight: bold; " text-rendering="auto" clip-path="url(#clip-0)">-25</text></g><g transform="matrix(1,0,0,1,0,0)"><text x="36" y="405.54" style="fill: rgb(102,102,102); font-family: sans-serif; font-size: 11px; font-weight: bold; " text-rendering="auto" clip-path="url(#clip-0)">-20</text></g><g transform="matrix(1,0,0,1,0,0)"><text x="36" y="380.43" style="fill: rgb(102,102,102); font-family: sans-serif; font-size: 11px; font-weight: bold; " text-rendering="auto" clip-path="url(#clip-0)">-15</text></g><g transform="matrix(1,0,0,1,0,0)"><text x="36" y="355.32" style="fill: rgb(102,102,102); font-family: sans-serif; font-size: 11px; font-weight: bold; " text-rendering="auto" clip-path="url(#clip-0)">-10</text></g><g transform="matrix(1,0,0,1,0,0)"><text x="44" y="330.21" style="fill: rgb(102,102,102); font-family: sans-serif; font-size: 11px; font-weight: bold; " text-rendering="auto" clip-path="url(#clip-0)">-5</text></g><g transform="matrix(1,0,0,1,0,0)"><text x="49" y="305.1" style="fill: rgb(102,102,102); font-family: sans-serif; font-size: 11px; font-weight: bold; " text-rendering="auto" clip-path="url(#clip-0)">0</text></g><g transform="matrix(1,0,0,1,0,0)"><text x="49" y="279.99" style="fill: rgb(102,102,102); font-family: sans-serif; font-size: 11px; font-weight: bold; " text-rendering="auto" clip-path="url(#clip-0)">5</text></g><g transform="matrix(1,0,0,1,0,0)"><text x="41" y="254.88" style="fill: rgb(102,102,102); font-family: sans-serif; font-size: 11px; font-weight: bold; " text-rendering="auto" clip-path="url(#clip-0)">10</text></g><g transform="matrix(1,0,0,1,0,0)"><text x="41" y="229.77" style="fill: rgb(102,102,102); font-family: sans-serif; font-size: 11px; font-weight: bold; " text-rendering="auto" clip-path="url(#clip-0)">15</text></g><g transform="matrix(1,0,0,1,0,0)"><text x="41" y="204.66" style="fill: rgb(102,102,102); font-family: sans-serif; font-size: 11px; font-weight: bold; " text-rendering="auto" clip-path="url(#clip-0)">20</text></g><g transform="matrix(1,0,0,1,0,0)"><text x="41" y="179.55" style="fill: rgb(102,102,102); font-family: sans-serif; font-size: 11px; font-weight: bold; " text-rendering="auto" clip-path="url(#clip-0)">25</text></g><g transform="matrix(1,0,0,1,0,0)"><text x="41" y="154.44" style="fill: rgb(102,102,102); font-family: sans-serif; font-size: 11px; font-weight: bold; " text-rendering="auto" clip-path="url(#clip-0)">30</text></g><g transform="matrix(1,0,0,1,0,0)"><text x="41" y="129.33" style="fill: rgb(102,102,102); font-family: sans-serif; font-size: 11px; font-weight: bold; " text-rendering="auto" clip-path="url(#clip-0)">35</text></g><g transform="matrix(1,0,0,1,0,0)"><text x="41" y="104.22" style="fill: rgb(102,102,102); font-family: sans-serif; font-size: 11px; font-weight: bold; " text-rendering="auto" clip-path="url(#clip-0)">40</text></g><g transform="matrix(1,0,0,1,0,0)"><text x="41" y="79.11" style="fill: rgb(102,102,102); font-family: sans-serif; font-size: 11px; font-weight: bold; " text-rendering="auto" clip-path="url(#clip-0)">45</text></g><g transform="matrix(0,-1,1,0,-226.230469,270.769531)"><text x="-1.23" y="253.69" style="fill: rgb(77,117,158); font-family: sans-serif; font-size: 15px; font-weight: bold; " text-rendering="auto" clip-path="url(#clip-4)">Score</text></g><line x1="63" y1="426.84" x2="815" y2="426.84" style="stroke-width: 1.0;stroke: rgb(192,192,192);stroke-opacity: 1;" transform="matrix(1,0,0,1,0,0)" clip-path="url(#clip-5)"/><line x1="63" y1="401.73" x2="815" y2="401.73" style="stroke-width: 1.0;stroke: rgb(192,192,192);stroke-opacity: 1;" transform="matrix(1,0,0,1,0,0)" clip-path="url(#clip-5)"/><line x1="63" y1="376.62" x2="815" y2="376.62" style="stroke-width: 1.0;stroke: rgb(192,192,192);stroke-opacity: 1;" transform="matrix(1,0,0,1,0,0)" clip-path="url(#clip-5)"/><line x1="63" y1="351.51" x2="815" y2="351.51" style="stroke-width: 1.0;stroke: rgb(192,192,192);stroke-opacity: 1;" transform="matrix(1,0,0,1,0,0)" clip-path="url(#clip-5)"/><line x1="63" y1="326.4" x2="815" y2="326.4" style="stroke-width: 1.0;stroke: rgb(192,192,192);stroke-opacity: 1;" transform="matrix(1,0,0,1,0,0)" clip-path="url(#clip-5)"/><line x1="63" y1="301.29" x2="815" y2="301.29" style="stroke-width: 1.0;stroke: rgb(192,192,192);stroke-opacity: 1;" transform="matrix(1,0,0,1,0,0)" clip-path="url(#clip-5)"/><line x1="63" y1="276.18" x2="815" y2="276.18" style="stroke-width: 1.0;stroke: rgb(192,192,192);stroke-opacity: 1;" transform="matrix(1,0,0,1,0,0)" clip-path="url(#clip-5)"/><line x1="63" y1="251.07" x2="815" y2="251.07" style="stroke-width: 1.0;stroke: rgb(192,192,192);stroke-opacity: 1;" transform="matrix(1,0,0,1,0,0)" clip-path="url(#clip-5)"/><line x1="63" y1="225.96" x2="815" y2="225.96" style="stroke-width: 1.0;stroke: rgb(192,192,192);stroke-opacity: 1;" transform="matrix(1,0,0,1,0,0)" clip-path="url(#clip-5)"/><line x1="63" y1="200.85" x2="815" y2="200.85" style="stroke-width: 1.0;stroke: rgb(192,192,192);stroke-opacity: 1;" transform="matrix(1,0,0,1,0,0)" clip-path="url(#clip-5)"/><line x1="63" y1="175.74" x2="815" y2="175.74" style="stroke-width: 1.0;stroke: rgb(192,192,192);stroke-opacity: 1;" transform="matrix(1,0,0,1,0,0)" clip-path="url(#clip-5)"/><line x1="63" y1="150.63" x2="815" y2="150.63" style="stroke-width: 1.0;stroke: rgb(192,192,192);stroke-opacity: 1;" transform="matrix(1,0,0,1,0,0)" clip-path="url(#clip-5)"/><line x1="63" y1="125.52" x2="815" y2="125.52" style="stroke-width: 1.0;stroke: rgb(192,192,192);stroke-opacity: 1;" transform="matrix(1,0,0,1,0,0)" clip-path="url(#clip-5)"/><line x1="63" y1="100.41" x2="815" y2="100.41" style="stroke-width: 1.0;stroke: rgb(192,192,192);stroke-opacity: 1;" transform="matrix(1,0,0,1,0,0)" clip-path="url(#clip-5)"/><line x1="63" y1="75.3" x2="815" y2="75.3" style="stroke-width: 1.0;stroke: rgb(192,192,192);stroke-opacity: 1;" transform="matrix(1,0,0,1,0,0)" clip-path="url(#clip-5)"/><rect x="267.29" y="301.29" width="8.77" height="13.06" style="fill: rgb(255,64,64);fill-opacity: 1" transform="matrix(1,0,0,1,0,0)" clip-path="url(#clip-5)"/><rect x="517.96" y="301.29" width="8.77" height="8.58" style="fill: rgb(255,64,64);fill-opacity: 1" transform="matrix(1,0,0,1,0,0)" clip-path="url(#clip-5)"/><rect x="768.63" y="260.16" width="8.77" height="41.13" style="fill: rgb(255,64,64);fill-opacity: 1" transform="matrix(1,0,0,1,0,0)" clip-path="url(#clip-5)"/><rect x="258.52" y="301.29" width="8.77" height="16.64" style="fill: rgb(64,64,64);fill-opacity: 1" transform="matrix(1,0,0,1,0,0)" clip-path="url(#clip-5)"/><rect x="509.19" y="301.29" width="8.77" height="7.55" style="fill: rgb(64,64,64);fill-opacity: 1" transform="matrix(1,0,0,1,0,0)" clip-path="url(#clip-5)"/><rect x="759.85" y="258.68" width="8.77" height="42.61" style="fill: rgb(64,64,64);fill-opacity: 1" transform="matrix(1,0,0,1,0,0)" clip-path="url(#clip-5)"/><rect x="249.75" y="301.29" width="8.77" height="18.85" style="fill: rgb(0,192,192);fill-opacity: 1" transform="matrix(1,0,0,1,0,0)" clip-path="url(#clip-5)"/><rect x="500.41" y="301.29" width="8.77" height="6.18" style="fill: rgb(0,192,192);fill-opacity: 1" transform="matrix(1,0,0,1,0,0)" clip-path="url(#clip-5)"/><rect x="751.08" y="258.45" width="8.77" height="42.84" style="fill: rgb(0,192,192);fill-opacity: 1" transform="matrix(1,0,0,1,0,0)" clip-path="url(#clip-5)"/><rect x="240.97" y="301.29" width="8.77" height="18.85" style="fill: rgb(192,0,192);fill-opacity: 1" transform="matrix(1,0,0,1,0,0)" clip-path="url(#clip-5)"/><rect x="491.64" y="301.29" width="8.77" height="6.18" style="fill: rgb(192,0,192);fill-opacity: 1" transform="matrix(1,0,0,1,0,0)" clip-path="url(#clip-5)"/><rect x="742.31" y="258.45" width="8.77" height="42.84" style="fill: rgb(192,0,192);fill-opacity: 1" transform="matrix(1,0,0,1,0,0)" clip-path="url(#clip-5)"/><rect x="232.2" y="301.29" width="8.77" height="25.13" style="fill: rgb(192,192,0);fill-opacity: 1" transform="matrix(1,0,0,1,0,0)" clip-path="url(#clip-5)"/><rect x="482.87" y="301.29" width="8.77" height="4.55" style="fill: rgb(192,192,0);fill-opacity: 1" transform="matrix(1,0,0,1,0,0)" clip-path="url(#clip-5)"/><rect x="733.53" y="254.11" width="8.77" height="47.19" style="fill: rgb(192,192,0);fill-opacity: 1" transform="matrix(1,0,0,1,0,0)" clip-path="url(#clip-5)"/><rect x="223.43" y="301.29" width="8.77" height="20.94" style="fill: rgb(0,192,0);fill-opacity: 1" transform="matrix(1,0,0,1,0,0)" clip-path="url(#clip-5)"/><rect x="474.09" y="301.29" width="8.77" height="6.87" style="fill: rgb(0,192,0);fill-opacity: 1" transform="matrix(1,0,0,1,0,0)" clip-path="url(#clip-5)"/><rect x="724.76" y="253.69" width="8.77" height="47.61" style="fill: rgb(0,192,0);fill-opacity: 1" transform="matrix(1,0,0,1,0,0)" clip-path="url(#clip-5)"/><rect x="214.65" y="301.29" width="8.77" height="20.94" style="fill: rgb(0,0,192);fill-opacity: 1" transform="matrix(1,0,0,1,0,0)" clip-path="url(#clip-5)"/><rect x="465.32" y="301.29" width="8.77" height="6.87" style="fill: rgb(0,0,192);fill-opacity: 1" transform="matrix(1,0,0,1,0,0)" clip-path="url(#clip-5)"/><rect x="715.99" y="253.69" width="8.77" height="47.61" style="fill: rgb(0,0,192);fill-opacity: 1" transform="matrix(1,0,0,1,0,0)" clip-path="url(#clip-5)"/><rect x="205.88" y="301.29" width="8.77" height="34.01" style="fill: rgb(192,0,0);fill-opacity: 1" transform="matrix(1,0,0,1,0,0)" clip-path="url(#clip-5)"/><rect x="456.55" y="301.29" width="8.77" height="1.88" style="fill: rgb(192,0,0);fill-opacity: 1" transform="matrix(1,0,0,1,0,0)" clip-path="url(#clip-5)"/><rect x="707.21" y="250.75" width="8.77" height="50.54" style="fill: rgb(192,0,0);fill-opacity: 1" transform="matrix(1,0,0,1,0,0)" clip-path="url(#clip-5)"/><rect x="197.11" y="301.29" width="8.77" height="33.51" style="fill: rgb(128,128,128);fill-opacity: 1" transform="matrix(1,0,0,1,0,0)" clip-path="url(#clip-5)"/><rect x="447.77" y="301.29" width="8.77" height="4.12" style="fill: rgb(128,128,128);fill-opacity: 1" transform="matrix(1,0,0,1,0,0)" clip-path="url(#clip-5)"/><rect x="698.44" y="244.59" width="8.77" height="56.7" style="fill: rgb(128,128,128);fill-opacity: 1" transform="matrix(1,0,0,1,0,0)" clip-path="url(#clip-5)"/><rect x="188.33" y="301.29" width="8.77" height="25.13" style="fill: rgb(255,175,175);fill-opacity: 1" transform="matrix(1,0,0,1,0,0)" clip-path="url(#clip-5)"/><rect x="439" y="301.29" width="8.77" height="8.24" style="fill: rgb(255,175,175);fill-opacity: 1" transform="matrix(1,0,0,1,0,0)" clip-path="url(#clip-5)"/><rect x="689.67" y="244.16" width="8.77" height="57.13" style="fill: rgb(255,175,175);fill-opacity: 1" transform="matrix(1,0,0,1,0,0)" clip-path="url(#clip-5)"/><rect x="179.56" y="301.29" width="8.77" height="25.13" style="fill: rgb(85,255,255);fill-opacity: 1" transform="matrix(1,0,0,1,0,0)" clip-path="url(#clip-5)"/><rect x="430.23" y="301.29" width="8.77" height="8.24" style="fill: rgb(85,255,255);fill-opacity: 1" transform="matrix(1,0,0,1,0,0)" clip-path="url(#clip-5)"/><rect x="680.89" y="244.16" width="8.77" height="57.13" style="fill: rgb(85,255,255);fill-opacity: 1" transform="matrix(1,0,0,1,0,0)" clip-path="url(#clip-5)"/><rect x="170.79" y="301.29" width="8.77" height="25.13" style="fill: rgb(255,85,255);fill-opacity: 1" transform="matrix(1,0,0,1,0,0)" clip-path="url(#clip-5)"/><rect x="421.45" y="301.29" width="8.77" height="8.24" style="fill: rgb(255,85,255);fill-opacity: 1" transform="matrix(1,0,0,1,0,0)" clip-path="url(#clip-5)"/><rect x="672.12" y="244.16" width="8.77" height="57.13" style="fill: rgb(255,85,255);fill-opacity: 1" transform="matrix(1,0,0,1,0,0)" clip-path="url(#clip-5)"/><rect x="162.01" y="301.29" width="8.77" height="25.13" style="fill: rgb(255,255,85);fill-opacity: 1" transform="matrix(1,0,0,1,0,0)" clip-path="url(#clip-5)"/><rect x="412.68" y="301.29" width="8.77" height="8.24" style="fill: rgb(255,255,85);fill-opacity: 1" transform="matrix(1,0,0,1,0,0)" clip-path="url(#clip-5)"/><rect x="663.35" y="244.16" width="8.77" height="57.13" style="fill: rgb(255,255,85);fill-opacity: 1" transform="matrix(1,0,0,1,0,0)" clip-path="url(#clip-5)"/><rect x="153.24" y="301.29" width="8.77" height="50.27" style="fill: rgb(85,255,85);fill-opacity: 1" transform="matrix(1,0,0,1,0,0)" clip-path="url(#clip-5)"/><rect x="403.91" y="301.29" width="8.77" height="1.44" style="fill: rgb(85,255,85);fill-opacity: 1" transform="matrix(1,0,0,1,0,0)" clip-path="url(#clip-5)"/><rect x="654.57" y="239.86" width="8.77" height="61.43" style="fill: rgb(85,255,85);fill-opacity: 1" transform="matrix(1,0,0,1,0,0)" clip-path="url(#clip-5)"/><rect x="144.47" y="301.29" width="8.77" height="46.08" style="fill: rgb(85,85,255);fill-opacity: 1" transform="matrix(1,0,0,1,0,0)" clip-path="url(#clip-5)"/><rect x="395.13" y="301.29" width="8.77" height="3.01" style="fill: rgb(85,85,255);fill-opacity: 1" transform="matrix(1,0,0,1,0,0)" clip-path="url(#clip-5)"/><rect x="645.8" y="234" width="8.77" height="67.3" style="fill: rgb(85,85,255);fill-opacity: 1" transform="matrix(1,0,0,1,0,0)" clip-path="url(#clip-5)"/><rect x="135.69" y="301.29" width="8.77" height="31.42" style="fill: rgb(255,85,85);fill-opacity: 1" transform="matrix(1,0,0,1,0,0)" clip-path="url(#clip-5)"/><rect x="386.36" y="301.29" width="8.77" height="10.3" style="fill: rgb(255,85,85);fill-opacity: 1" transform="matrix(1,0,0,1,0,0)" clip-path="url(#clip-5)"/><rect x="637.03" y="229.87" width="8.77" height="71.42" style="fill: rgb(255,85,85);fill-opacity: 1" transform="matrix(1,0,0,1,0,0)" clip-path="url(#clip-5)"/><rect x="126.92" y="301.29" width="8.77" height="47.42" style="fill: rgb(145,0,0);fill-opacity: 1" transform="matrix(1,0,0,1,0,0)" clip-path="url(#clip-5)"/><rect x="377.59" y="301.29" width="8.77" height="2.93" style="fill: rgb(145,0,0);fill-opacity: 1" transform="matrix(1,0,0,1,0,0)" clip-path="url(#clip-5)"/><rect x="628.25" y="228.51" width="8.77" height="72.78" style="fill: rgb(145,0,0);fill-opacity: 1" transform="matrix(1,0,0,1,0,0)" clip-path="url(#clip-5)"/><rect x="118.15" y="301.29" width="8.77" height="46.08" style="fill: rgb(139,188,33);fill-opacity: 1" transform="matrix(1,0,0,1,0,0)" clip-path="url(#clip-5)"/><rect x="368.81" y="301.29" width="8.77" height="15.11" style="fill: rgb(139,188,33);fill-opacity: 1" transform="matrix(1,0,0,1,0,0)" clip-path="url(#clip-5)"/><rect x="619.48" y="196.5" width="8.77" height="104.79" style="fill: rgb(139,188,33);fill-opacity: 1" transform="matrix(1,0,0,1,0,0)" clip-path="url(#clip-5)"/><rect x="109.37" y="301.29" width="8.77" height="64.95" style="fill: rgb(13,35,58);fill-opacity: 1" transform="matrix(1,0,0,1,0,0)" clip-path="url(#clip-5)"/><rect x="360.04" y="301.29" width="8.77" height="11.84" style="fill: rgb(13,35,58);fill-opacity: 1" transform="matrix(1,0,0,1,0,0)" clip-path="url(#clip-5)"/><rect x="610.71" y="176.02" width="8.77" height="125.27" style="fill: rgb(13,35,58);fill-opacity: 1" transform="matrix(1,0,0,1,0,0)" clip-path="url(#clip-5)"/><rect x="100.6" y="301.29" width="8.77" height="135.84" style="fill: rgb(47,126,216);fill-opacity: 1" transform="matrix(1,0,0,1,0,0)" clip-path="url(#clip-5)"/><rect x="351.27" y="301.29" width="8.77" height="13.49" style="fill: rgb(47,126,216);fill-opacity: 1" transform="matrix(1,0,0,1,0,0)" clip-path="url(#clip-5)"/><rect x="601.93" y="59.86" width="8.77" height="241.43" style="fill: rgb(47,126,216);fill-opacity: 1" transform="matrix(1,0,0,1,0,0)" clip-path="url(#clip-5)"/><line x1="63" y1="291.25" x2="815" y2="291.25" style="stroke-width: 0.5;stroke: rgb(255,0,0);stroke-opacity: 1;" transform="matrix(1,0,0,1,0,0)" clip-path="url(#clip-5)"/><g transform="matrix(1,0,0,1,0,0)"><text x="751" y="286.13" style="fill: rgb(0,0,0); font-family: sans-serif; font-size: 9px; " text-rendering="auto" clip-path="url(#clip-5)">Banality: 2.0</text></g><line x1="63" y1="311.34" x2="815" y2="311.34" style="stroke-width: 0.5;stroke: rgb(255,0,0);stroke-opacity: 1;" transform="matrix(1,0,0,1,0,0)" clip-path="url(#clip-5)"/><g transform="matrix(1,0,0,1,0,0)"><text x="748" y="306.21" style="fill: rgb(0,0,0); font-family: sans-serif; font-size: 9px; " text-rendering="auto" clip-path="url(#clip-5)">Banality: -2.0</text></g></svg>
