<!DOCTYPE svg PUBLIC "-//W3C//DTD SVG 1.1//EN" "http://www.w3.org/Graphics/SVG/1.1/DTD/svg11.dtd">
<svg style="stroke-linecap:square;" xmlns="http://www.w3.org/2000/svg" xmlns:xlink="http://www.w3.org/1999/xlink" width="904" height="532">
<defs><clipPath id="clip-0"><path d="M 0 0 L 904 0 L 904 532 L 0 532 L 0 0 M 0 0"/></clipPath>
<clipPath id="clip-1"><path d="M 646.33 289.67 L 646.33 1193.67 L 114.33 1193.67 L 114.33 289.67 L 646.33 289.67 M 646.33 289.67"/></clipPath>
<clipPath id="clip-2"><path d="M 893 43 L 893 947 L 361 947 L 361 43 L 893 43 M 893 43"/></clipPath>
<clipPath id="clip-3"><path d="M 1139.67 -203.67 L 1139.67 700.33 L 607.67 700.33 L 607.67 -203.67 L 1139.67 -203.67 M 1139.67 -203.67"/></clipPath>
<clipPath id="clip-4"><path d="M 270.77 226.23 L 270.77 1130.23 L -261.23 1130.23 L -261.23 226.23 L 270.77 226.23 M 270.77 226.23"/></clipPath>
<clipPath id="clip-5"><path d="M 55 41 L 55 456 L 795 456 L 795 41 M 55 41"/></clipPath>
</defs>
<rect x="0" y="0" width="904" height="532" style="fill: rgb(255,255,255);fill-opacity: 1" transform="matrix(1,0,0,1,0,0)" clip-path="url(#clip-0)"/><g transform="matrix(1,0,0,1,0,0)"><text x="429.5" y="25.85" style="fill: rgb(75,75,109); font-family: sans-serif; font-size: 16px; font-weight: bold; " text-rendering="auto" clip-path="url(#clip-0)">word</text></g><rect x="815" y="171.31" width="79" height="220" style="fill: rgb(255,255,255);fill-opacity: 1" transform="matrix(1,0,0,1,0,0)" clip-path="url(#clip-0)"/><g style="stroke-width: 1.0;stroke: rgb(128,128,128);stroke-opacity: 1; fill: none" transform="matrix(1,0,0,1,0,0)" clip-path="url(#clip-0)"><path d="M 815 176.31 L 815 386.31 C 815 389.07 817.24 391.31 820 391.31 L 889 391.31 C 891.76 391.31 894 389.07 894 386.31 L 894 176.31 C 894 173.55 891.76 171.31 889 171.31 L 820 171.31 C 817.24 171.31 815 173.55 815 176.31 M 815 176.31"/></g><g style="fill: rgb(47,126,216);fill-opacity: 1; stroke: none" transform="matrix(1,0,0,1,0,0)" clip-path="url(#clip-0)"><path d="M 819 177.81 L 819 186.81 C 819 188.19 820.12 189.31 821.5 189.31 L 829.5 189.31 C 830.88 189.31 832 188.19 832 186.81 L 832 177.81 C 832 176.43 830.88 175.31 829.5 175.31 L 821.5 175.31 C 820.12 175.31 819 176.43 819 177.81 M 819 177.81"/></g><g transform="matrix(1,0,0,1,0,0)"><text x="836" y="186.12" style="fill: rgb(39,75,109); font-family: sans-serif; font-size: 11px; font-weight: bold; " text-rendering="auto" clip-path="url(#clip-0)">抗议者</text></g><g style="fill: rgb(13,35,58);fill-opacity: 1; stroke: none" transform="matrix(1,0,0,1,0,0)" clip-path="url(#clip-0)"><path d="M 819 195.81 L 819 204.81 C 819 206.19 820.12 207.31 821.5 207.31 L 829.5 207.31 C 830.88 207.31 832 206.19 832 204.81 L 832 195.81 C 832 194.43 830.88 193.31 829.5 193.31 L 821.5 193.31 C 820.12 193.31 819 194.43 819 195.81 M 819 195.81"/></g><g transform="matrix(1,0,0,1,0,0)"><text x="836" y="204.12" style="fill: rgb(39,75,109); font-family: sans-serif; font-size: 11px; font-weight: bold; " text-rendering="auto" clip-path="url(#clip-0)">抗议</text></g><g style="fill: rgb(139,188,33);fill-opacity: 1; stroke: none" transform="matrix(1,0,0,1,0,0)" clip-path="url(#clip-0)"><path d="M 819 213.81 L 819 222.81 C 819 224.19 820.12 225.31 821.5 225.31 L 829.5 225.31 C 830.88 225.31 832 224.19 832 222.81 L 832 213.81 C 832 212.43 830.88 211.31 829.5 211.31 L 821.5 211.31 C 820.12 211.31 819 212.43 819 213.81 M 819 213.81"/></g><g transform="matrix(1,0,0,1,0,0)"><text x="836" y="222.12" style="fill: rgb(39,75,109); font-family: sans-serif; font-size: 11px; font-weight: bold; " text-rendering="auto" clip-path="url(#clip-0)">凯旋门</text></g><g style="fill: rgb(145,0,0);fill-opacity: 1; stroke: none" transform="matrix(1,0,0,1,0,0)" clip-path="url(#clip-0)"><path d="M 819 231.81 L 819 240.81 C 819 242.19 820.12 243.31 821.5 243.31 L 829.5 243.31 C 830.88 243.31 832 242.19 832 240.81 L 832 231.81 C 832 230.43 830.88 229.31 829.5 229.31 L 821.5 229.31 C 820.12 229.31 819 230.43 819 231.81 M 819 231.81"/></g><g transform="matrix(1,0,0,1,0,0)"><text x="836" y="240.12" style="fill: rgb(39,75,109); font-family: sans-serif; font-size: 11px; font-weight: bold; " text-rendering="auto" clip-path="url(#clip-0)">巴黎</text></g><g style="fill: rgb(255,85,85);fill-opacity: 1; stroke: none" transform="matrix(1,0,0,1,0,0)" clip-path="url(#clip-0)"><path d="M 819 249.81 L 819 258.81 C 819 260.19 820.12 261.31 821.5 261.31 L 829.5 261.31 C 830.88 261.31 832 260.19 832 258.81 L 832 249.81 C 832 248.43 830.88 247.31 829.5 247.31 L 821.5 247.31 C 820.12 247.31 819 248.43 819 249.81 M 819 249.81"/></g><g transform="matrix(1,0,0,1,0,0)"><text x="836" y="258.12" style="fill: rgb(39,75,109); font-family: sans-serif; font-size: 11px; font-weight: bold; " text-rendering="auto" clip-path="url(#clip-0)">明年</text></g><g style="fill: rgb(85,85,255);fill-opacity: 1; stroke: none" transform="matrix(1,0,0,1,0,0)" clip-path="url(#clip-0)"><path d="M 819 267.81 L 819 276.81 C 819 278.19 820.12 279.31 821.5 279.31 L 829.5 279.31 C 830.88 279.31 832 278.19 832 276.81 L 832 267.81 C 832 266.43 830.88 265.31 829.5 265.31 L 821.5 265.31 C 820.12 265.31 819 266.43 819 267.81 M 819 267.81"/></g><g transform="matrix(1,0,0,1,0,0)"><text x="836" y="276.12" style="fill: rgb(39,75,109); font-family: sans-serif; font-size: 11px; font-weight: bold; " text-rendering="auto" clip-path="url(#clip-0)">活动</text></g><g style="fill: rgb(85,255,85);fill-opacity: 1; stroke: none" transform="matrix(1,0,0,1,0,0)" clip-path="url(#clip-0)"><path d="M 819 285.81 L 819 294.81 C 819 296.19 820.12 297.31 821.5 297.31 L 829.5 297.31 C 830.88 297.31 832 296.19 832 294.81 L 832 285.81 C 832 284.43 830.88 283.31 829.5 283.31 L 821.5 283.31 C 820.12 283.31 819 284.43 819 285.81 M 819 285.81"/></g><g transform="matrix(1,0,0,1,0,0)"><text x="836" y="294.12" style="fill: rgb(39,75,109); font-family: sans-serif; font-size: 11px; font-weight: bold; " text-rendering="auto" clip-path="url(#clip-0)">措施</text></g><g style="fill: rgb(255,255,85);fill-opacity: 1; stroke: none" transform="matrix(1,0,0,1,0,0)" clip-path="url(#clip-0)"><path d="M 819 303.81 L 819 312.81 C 819 314.19 820.12 315.31 821.5 315.31 L 829.5 315.31 C 830.88 315.31 832 314.19 832 312.81 L 832 303.81 C 832 302.43 830.88 301.31 829.5 301.31 L 821.5 301.31 C 820.12 301.31 819 302.43 819 303.81 M 819 303.81"/></g><g transform="matrix(1,0,0,1,0,0)"><text x="836" y="312.12" style="fill: rgb(39,75,109); font-family: sans-serif; font-size: 11px; font-weight: bold; " text-rendering="auto" clip-path="url(#clip-0)">汽车</text></g><g style="fill: rgb(255,85,255);fill-opacity: 1; stroke: none" transform="matrix(1,0,0,1,0,0)" clip-path="url(#clip-0)"><path d="M 819 321.81 L 819 330.81 C 819 332.19 820.12 333.31 821.5 333.31 L 829.5 333.31 C 830.88 333.31 832 332.19 832 330.81 L 832 321.81 C 832 320.43 830.88 319.31 829.5 319.31 L 821.5 319.31 C 820.12 319.31 819 320.43 819 321.81 M 819 321.81"/></g><g transform="matrix(1,0,0,1,0,0)"><text x="836" y="330.12" style="fill: rgb(39,75,109); font-family: sans-serif; font-size: 11px; font-weight: bold; " text-rendering="auto" clip-path="url(#clip-0)">骚乱</text></g><g style="fill: rgb(85,255,255);fill-opacity: 1; stroke: none" transform="matrix(1,0,0,1,0,0)" clip-path="url(#clip-0)"><path d="M 819 339.81 L 819 348.81 C 819 350.19 820.12 351.31 821.5 351.31 L 829.5 351.31 C 830.88 351.31 832 350.19 832 348.81 L 832 339.81 C 832 338.43 830.88 337.31 829.5 337.31 L 821.5 337.31 C 820.12 337.31 819 338.43 819 339.81 M 819 339.81"/></g><g transform="matrix(1,0,0,1,0,0)"><text x="836" y="348.12" style="fill: rgb(39,75,109); font-family: sans-serif; font-size: 11px; font-weight: bold; " text-rendering="auto" clip-path="url(#clip-0)">商店</text></g><g style="fill: rgb(255,175,175);fill-opacity: 1; stroke: none" transform="matrix(1,0,0,1,0,0)" clip-path="url(#clip-0)"><path d="M 819 357.81 L 819 366.81 C 819 368.19 820.12 369.31 821.5 369.31 L 829.5 369.31 C 830.88 369.31 832 368.19 832 366.81 L 832 357.81 C 832 356.43 830.88 355.31 829.5 355.31 L 821.5 355.31 C 820.12 355.31 819 356.43 819 357.81 M 819 357.81"/></g><g transform="matrix(1,0,0,1,0,0)"><text x="836" y="366.12" style="fill: rgb(39,75,109); font-family: sans-serif; font-size: 11px; font-weight: bold; " text-rendering="auto" clip-path="url(#clip-0)">大规模</text></g><g style="fill: rgb(128,128,128);fill-opacity: 1; stroke: none" transform="matrix(1,0,0,1,0,0)" clip-path="url(#clip-0)"><path d="M 819 375.81 L 819 384.81 C 819 386.19 820.12 387.31 821.5 387.31 L 829.5 387.31 C 830.88 387.31 832 386.19 832 384.81 L 832 375.81 C 832 374.43 830.88 373.31 829.5 373.31 L 821.5 373.31 C 820.12 373.31 819 374.43 819 375.81 M 819 375.81"/></g><g transform="matrix(1,0,0,1,0,0)"><text x="836" y="384.12" style="fill: rgb(39,75,109); font-family: sans-serif; font-size: 11px; font-weight: bold; " text-rendering="auto" clip-path="url(#clip-0)">香榭丽舍大街</text></g><rect x="55" y="41" width="740" height="415" style="fill: rgb(255,255,255);fill-opacity: 1" transform="matrix(1,0,0,1,0,0)" clip-path="url(#clip-0)"/><line x1="55" y1="456" x2="795" y2="456" style="stroke-width: 1.0;stroke: rgb(192,208,224);stroke-opacity: 1;" transform="matrix(1,0,0,1,0,0)" clip-path="url(#clip-0)"/><g transform="matrix(0,-1,1,0,-289.666672,646.333328)"><text x="146.33" y="471.81" style="fill: rgb(102,102,102); font-family: sans-serif; font-size: 11px; font-weight: bold; " text-rendering="auto" clip-path="url(#clip-1)">2018</text></g><line x1="301.67" y1="461" x2="301.67" y2="456" style="stroke-width: 1.0;stroke: rgb(192,208,224);stroke-opacity: 1;" transform="matrix(1,0,0,1,0,0)" clip-path="url(#clip-0)"/><line x1="55" y1="461" x2="55" y2="456" style="stroke-width: 1.0;stroke: rgb(192,208,224);stroke-opacity: 1;" transform="matrix(1,0,0,1,0,0)" clip-path="url(#clip-0)"/><g transform="matrix(0,-1,1,0,-43,893)"><text x="398" y="471.81" style="fill: rgb(102,102,102); font-family: sans-serif; font-size: 11px; font-weight: bold; " text-rendering="auto" clip-path="url(#clip-2)">janv</text></g><line x1="548.33" y1="461" x2="548.33" y2="456" style="stroke-width: 1.0;stroke: rgb(192,208,224);stroke-opacity: 1;" transform="matrix(1,0,0,1,0,0)" clip-path="url(#clip-0)"/><g transform="matrix(0,-1,1,0,203.666687,1139.666687)"><text x="651.67" y="471.81" style="fill: rgb(102,102,102); font-family: sans-serif; font-size: 11px; font-weight: bold; " text-rendering="auto" clip-path="url(#clip-3)">fev</text></g><line x1="795" y1="461" x2="795" y2="456" style="stroke-width: 1.0;stroke: rgb(192,208,224);stroke-opacity: 1;" transform="matrix(1,0,0,1,0,0)" clip-path="url(#clip-0)"/><g transform="matrix(1,0,0,1,0,0)"><text x="407.5" y="514.92" style="fill: rgb(77,117,158); font-family: sans-serif; font-size: 15px; font-weight: bold; " text-rendering="auto" clip-path="url(#clip-0)">Part</text></g><g transform="matrix(1,0,0,1,0,0)"><text x="36" y="421.04" style="fill: rgb(102,102,102); font-family: sans-serif; font-size: 11px; font-weight: bold; " text-rendering="auto" clip-path="url(#clip-0)">-6</text></g><g transform="matrix(1,0,0,1,0,0)"><text x="36" y="394.67" style="fill: rgb(102,102,102); font-family: sans-serif; font-size: 11px; font-weight: bold; " text-rendering="auto" clip-path="url(#clip-0)">-5</text></g><g transform="matrix(1,0,0,1,0,0)"><text x="36" y="368.3" style="fill: rgb(102,102,102); font-family: sans-serif; font-size: 11px; font-weight: bold; " text-rendering="auto" clip-path="url(#clip-0)">-4</text></g><g transform="matrix(1,0,0,1,0,0)"><text x="36" y="341.93" style="fill: rgb(102,102,102); font-family: sans-serif; font-size: 11px; font-weight: bold; " text-rendering="auto" clip-path="url(#clip-0)">-3</text></g><g transform="matrix(1,0,0,1,0,0)"><text x="36" y="315.55" style="fill: rgb(102,102,102); font-family: sans-serif; font-size: 11px; font-weight: bold; " text-rendering="auto" clip-path="url(#clip-0)">-2</text></g><g transform="matrix(1,0,0,1,0,0)"><text x="36" y="289.18" style="fill: rgb(102,102,102); font-family: sans-serif; font-size: 11px; font-weight: bold; " text-rendering="auto" clip-path="url(#clip-0)">-1</text></g><g transform="matrix(1,0,0,1,0,0)"><text x="41" y="262.81" style="fill: rgb(102,102,102); font-family: sans-serif; font-size: 11px; font-weight: bold; " text-rendering="auto" clip-path="url(#clip-0)">0</text></g><g transform="matrix(1,0,0,1,0,0)"><text x="41" y="236.43" style="fill: rgb(102,102,102); font-family: sans-serif; font-size: 11px; font-weight: bold; " text-rendering="auto" clip-path="url(#clip-0)">1</text></g><g transform="matrix(1,0,0,1,0,0)"><text x="41" y="210.06" style="fill: rgb(102,102,102); font-family: sans-serif; font-size: 11px; font-weight: bold; " text-rendering="auto" clip-path="url(#clip-0)">2</text></g><g transform="matrix(1,0,0,1,0,0)"><text x="41" y="183.69" style="fill: rgb(102,102,102); font-family: sans-serif; font-size: 11px; font-weight: bold; " text-rendering="auto" clip-path="url(#clip-0)">3</text></g><g transform="matrix(1,0,0,1,0,0)"><text x="41" y="157.32" style="fill: rgb(102,102,102); font-family: sans-serif; font-size: 11px; font-weight: bold; " text-rendering="auto" clip-path="url(#clip-0)">4</text></g><g transform="matrix(1,0,0,1,0,0)"><text x="41" y="130.94" style="fill: rgb(102,102,102); font-family: sans-serif; font-size: 11px; font-weight: bold; " text-rendering="auto" clip-path="url(#clip-0)">5</text></g><g transform="matrix(1,0,0,1,0,0)"><text x="41" y="104.57" style="fill: rgb(102,102,102); font-family: sans-serif; font-size: 11px; font-weight: bold; " text-rendering="auto" clip-path="url(#clip-0)">6</text></g><g transform="matrix(1,0,0,1,0,0)"><text x="41" y="78.2" style="fill: rgb(102,102,102); font-family: sans-serif; font-size: 11px; font-weight: bold; " text-rendering="auto" clip-path="url(#clip-0)">7</text></g><g transform="matrix(0,-1,1,0,-226.230469,270.769531)"><text x="-1.23" y="253.69" style="fill: rgb(77,117,158); font-family: sans-serif; font-size: 15px; font-weight: bold; " text-rendering="auto" clip-path="url(#clip-4)">Score</text></g><line x1="55" y1="417.24" x2="795" y2="417.24" style="stroke-width: 1.0;stroke: rgb(192,192,192);stroke-opacity: 1;" transform="matrix(1,0,0,1,0,0)" clip-path="url(#clip-5)"/><line x1="55" y1="390.86" x2="795" y2="390.86" style="stroke-width: 1.0;stroke: rgb(192,192,192);stroke-opacity: 1;" transform="matrix(1,0,0,1,0,0)" clip-path="url(#clip-5)"/><line x1="55" y1="364.49" x2="795" y2="364.49" style="stroke-width: 1.0;stroke: rgb(192,192,192);stroke-opacity: 1;" transform="matrix(1,0,0,1,0,0)" clip-path="url(#clip-5)"/><line x1="55" y1="338.12" x2="795" y2="338.12" style="stroke-width: 1.0;stroke: rgb(192,192,192);stroke-opacity: 1;" transform="matrix(1,0,0,1,0,0)" clip-path="url(#clip-5)"/><line x1="55" y1="311.74" x2="795" y2="311.74" style="stroke-width: 1.0;stroke: rgb(192,192,192);stroke-opacity: 1;" transform="matrix(1,0,0,1,0,0)" clip-path="url(#clip-5)"/><line x1="55" y1="285.37" x2="795" y2="285.37" style="stroke-width: 1.0;stroke: rgb(192,192,192);stroke-opacity: 1;" transform="matrix(1,0,0,1,0,0)" clip-path="url(#clip-5)"/><line x1="55" y1="259" x2="795" y2="259" style="stroke-width: 1.0;stroke: rgb(192,192,192);stroke-opacity: 1;" transform="matrix(1,0,0,1,0,0)" clip-path="url(#clip-5)"/><line x1="55" y1="232.63" x2="795" y2="232.63" style="stroke-width: 1.0;stroke: rgb(192,192,192);stroke-opacity: 1;" transform="matrix(1,0,0,1,0,0)" clip-path="url(#clip-5)"/><line x1="55" y1="206.25" x2="795" y2="206.25" style="stroke-width: 1.0;stroke: rgb(192,192,192);stroke-opacity: 1;" transform="matrix(1,0,0,1,0,0)" clip-path="url(#clip-5)"/><line x1="55" y1="179.88" x2="795" y2="179.88" style="stroke-width: 1.0;stroke: rgb(192,192,192);stroke-opacity: 1;" transform="matrix(1,0,0,1,0,0)" clip-path="url(#clip-5)"/><line x1="55" y1="153.51" x2="795" y2="153.51" style="stroke-width: 1.0;stroke: rgb(192,192,192);stroke-opacity: 1;" transform="matrix(1,0,0,1,0,0)" clip-path="url(#clip-5)"/><line x1="55" y1="127.14" x2="795" y2="127.14" style="stroke-width: 1.0;stroke: rgb(192,192,192);stroke-opacity: 1;" transform="matrix(1,0,0,1,0,0)" clip-path="url(#clip-5)"/><line x1="55" y1="100.76" x2="795" y2="100.76" style="stroke-width: 1.0;stroke: rgb(192,192,192);stroke-opacity: 1;" transform="matrix(1,0,0,1,0,0)" clip-path="url(#clip-5)"/><line x1="55" y1="74.39" x2="795" y2="74.39" style="stroke-width: 1.0;stroke: rgb(192,192,192);stroke-opacity: 1;" transform="matrix(1,0,0,1,0,0)" clip-path="url(#clip-5)"/><rect x="250.28" y="126.2" width="14.39" height="132.8" style="fill: rgb(128,128,128);fill-opacity: 1" transform="matrix(1,0,0,1,0,0)" clip-path="url(#clip-5)"/><rect x="496.94" y="259" width="14.39" height="87.4" style="fill: rgb(128,128,128);fill-opacity: 1" transform="matrix(1,0,0,1,0,0)" clip-path="url(#clip-5)"/><rect x="743.61" y="259" width="14.39" height="38.8" style="fill: rgb(128,128,128);fill-opacity: 1" transform="matrix(1,0,0,1,0,0)" clip-path="url(#clip-5)"/><rect x="235.89" y="118.9" width="14.39" height="140.09" style="fill: rgb(255,175,175);fill-opacity: 1" transform="matrix(1,0,0,1,0,0)" clip-path="url(#clip-5)"/><rect x="482.56" y="259" width="14.39" height="80.05" style="fill: rgb(255,175,175);fill-opacity: 1" transform="matrix(1,0,0,1,0,0)" clip-path="url(#clip-5)"/><rect x="729.22" y="259" width="14.39" height="50.75" style="fill: rgb(255,175,175);fill-opacity: 1" transform="matrix(1,0,0,1,0,0)" clip-path="url(#clip-5)"/><rect x="221.5" y="116.8" width="14.39" height="142.2" style="fill: rgb(85,255,255);fill-opacity: 1" transform="matrix(1,0,0,1,0,0)" clip-path="url(#clip-5)"/><rect x="468.17" y="259" width="14.39" height="86.18" style="fill: rgb(85,255,255);fill-opacity: 1" transform="matrix(1,0,0,1,0,0)" clip-path="url(#clip-5)"/><rect x="714.83" y="259" width="14.39" height="43.89" style="fill: rgb(85,255,255);fill-opacity: 1" transform="matrix(1,0,0,1,0,0)" clip-path="url(#clip-5)"/><rect x="207.11" y="112.55" width="14.39" height="146.45" style="fill: rgb(255,85,255);fill-opacity: 1" transform="matrix(1,0,0,1,0,0)" clip-path="url(#clip-5)"/><rect x="453.78" y="259" width="14.39" height="70.6" style="fill: rgb(255,85,255);fill-opacity: 1" transform="matrix(1,0,0,1,0,0)" clip-path="url(#clip-5)"/><rect x="700.44" y="259" width="14.39" height="78.21" style="fill: rgb(255,85,255);fill-opacity: 1" transform="matrix(1,0,0,1,0,0)" clip-path="url(#clip-5)"/><rect x="192.72" y="111.6" width="14.39" height="147.4" style="fill: rgb(255,255,85);fill-opacity: 1" transform="matrix(1,0,0,1,0,0)" clip-path="url(#clip-5)"/><rect x="439.39" y="259" width="14.39" height="89.46" style="fill: rgb(255,255,85);fill-opacity: 1" transform="matrix(1,0,0,1,0,0)" clip-path="url(#clip-5)"/><rect x="686.06" y="259" width="14.39" height="45.27" style="fill: rgb(255,255,85);fill-opacity: 1" transform="matrix(1,0,0,1,0,0)" clip-path="url(#clip-5)"/><rect x="178.33" y="106.16" width="14.39" height="152.84" style="fill: rgb(85,255,85);fill-opacity: 1" transform="matrix(1,0,0,1,0,0)" clip-path="url(#clip-5)"/><rect x="425" y="259" width="14.39" height="81.67" style="fill: rgb(85,255,85);fill-opacity: 1" transform="matrix(1,0,0,1,0,0)" clip-path="url(#clip-5)"/><rect x="671.67" y="259" width="14.39" height="66.11" style="fill: rgb(85,255,85);fill-opacity: 1" transform="matrix(1,0,0,1,0,0)" clip-path="url(#clip-5)"/><rect x="163.94" y="105.39" width="14.39" height="153.61" style="fill: rgb(85,85,255);fill-opacity: 1" transform="matrix(1,0,0,1,0,0)" clip-path="url(#clip-5)"/><rect x="410.61" y="259" width="14.39" height="58.38" style="fill: rgb(85,85,255);fill-opacity: 1" transform="matrix(1,0,0,1,0,0)" clip-path="url(#clip-5)"/><rect x="657.28" y="259" width="14.39" height="111.12" style="fill: rgb(85,85,255);fill-opacity: 1" transform="matrix(1,0,0,1,0,0)" clip-path="url(#clip-5)"/><rect x="149.56" y="104.13" width="14.39" height="154.87" style="fill: rgb(255,85,85);fill-opacity: 1" transform="matrix(1,0,0,1,0,0)" clip-path="url(#clip-5)"/><rect x="396.22" y="259" width="14.39" height="100.99" style="fill: rgb(255,85,85);fill-opacity: 1" transform="matrix(1,0,0,1,0,0)" clip-path="url(#clip-5)"/><rect x="642.89" y="259" width="14.39" height="38.4" style="fill: rgb(255,85,85);fill-opacity: 1" transform="matrix(1,0,0,1,0,0)" clip-path="url(#clip-5)"/><rect x="135.17" y="90.54" width="14.39" height="168.46" style="fill: rgb(145,0,0);fill-opacity: 1" transform="matrix(1,0,0,1,0,0)" clip-path="url(#clip-5)"/><rect x="381.83" y="259" width="14.39" height="119.78" style="fill: rgb(145,0,0);fill-opacity: 1" transform="matrix(1,0,0,1,0,0)" clip-path="url(#clip-5)"/><rect x="628.5" y="259" width="14.39" height="41.44" style="fill: rgb(145,0,0);fill-opacity: 1" transform="matrix(1,0,0,1,0,0)" clip-path="url(#clip-5)"/><rect x="120.78" y="84.97" width="14.39" height="174.03" style="fill: rgb(139,188,33);fill-opacity: 1" transform="matrix(1,0,0,1,0,0)" clip-path="url(#clip-5)"/><rect x="367.44" y="259" width="14.39" height="92.74" style="fill: rgb(139,188,33);fill-opacity: 1" transform="matrix(1,0,0,1,0,0)" clip-path="url(#clip-5)"/><rect x="614.11" y="259" width="14.39" height="74.09" style="fill: rgb(139,188,33);fill-opacity: 1" transform="matrix(1,0,0,1,0,0)" clip-path="url(#clip-5)"/><rect x="106.39" y="84.67" width="14.39" height="174.33" style="fill: rgb(13,35,58);fill-opacity: 1" transform="matrix(1,0,0,1,0,0)" clip-path="url(#clip-5)"/><rect x="353.06" y="259" width="14.39" height="178.14" style="fill: rgb(13,35,58);fill-opacity: 1" transform="matrix(1,0,0,1,0,0)" clip-path="url(#clip-5)"/><rect x="599.72" y="259" width="14.39" height="15.55" style="fill: rgb(13,35,58);fill-opacity: 1" transform="matrix(1,0,0,1,0,0)" clip-path="url(#clip-5)"/><rect x="92" y="59.86" width="14.39" height="199.14" style="fill: rgb(47,126,216);fill-opacity: 1" transform="matrix(1,0,0,1,0,0)" clip-path="url(#clip-5)"/><rect x="338.67" y="259" width="14.39" height="125.12" style="fill: rgb(47,126,216);fill-opacity: 1" transform="matrix(1,0,0,1,0,0)" clip-path="url(#clip-5)"/><rect x="585.33" y="259" width="14.39" height="60.55" style="fill: rgb(47,126,216);fill-opacity: 1" transform="matrix(1,0,0,1,0,0)" clip-path="url(#clip-5)"/><line x1="55" y1="206.25" x2="795" y2="206.25" style="stroke-width: 0.5;stroke: rgb(255,0,0);stroke-opacity: 1;" transform="matrix(1,0,0,1,0,0)" clip-path="url(#clip-5)"/><g transform="matrix(1,0,0,1,0,0)"><text x="731" y="201.13" style="fill: rgb(0,0,0); font-family: sans-serif; font-size: 9px; " text-rendering="auto" clip-path="url(#clip-5)">Banality: 2.0</text></g><line x1="55" y1="311.74" x2="795" y2="311.74" style="stroke-width: 0.5;stroke: rgb(255,0,0);stroke-opacity: 1;" transform="matrix(1,0,0,1,0,0)" clip-path="url(#clip-5)"/><g transform="matrix(1,0,0,1,0,0)"><text x="728" y="306.62" style="fill: rgb(0,0,0); font-family: sans-serif; font-size: 9px; " text-rendering="auto" clip-path="url(#clip-5)">Banality: -2.0</text></g></svg>
