<!DOCTYPE svg PUBLIC "-//W3C//DTD SVG 1.1//EN" "http://www.w3.org/Graphics/SVG/1.1/DTD/svg11.dtd">
<svg style="stroke-linecap:square;" xmlns="http://www.w3.org/2000/svg" xmlns:xlink="http://www.w3.org/1999/xlink" width="904" height="532">
<defs><clipPath id="clip-0"><path d="M 0 0 L 904 0 L 904 532 L 0 532 L 0 0 M 0 0"/></clipPath>
<clipPath id="clip-1"><path d="M 652.5 283.5 L 652.5 1187.5 L 120.5 1187.5 L 120.5 283.5 L 652.5 283.5 M 652.5 283.5"/></clipPath>
<clipPath id="clip-2"><path d="M 905.5 30.5 L 905.5 934.5 L 373.5 934.5 L 373.5 30.5 L 905.5 30.5 M 905.5 30.5"/></clipPath>
<clipPath id="clip-3"><path d="M 1158.5 -222.5 L 1158.5 681.5 L 626.5 681.5 L 626.5 -222.5 L 1158.5 -222.5 M 1158.5 -222.5"/></clipPath>
<clipPath id="clip-4"><path d="M 258.77 238.23 L 258.77 1142.23 L -273.23 1142.23 L -273.23 238.23 L 258.77 238.23 M 258.77 238.23"/></clipPath>
<clipPath id="clip-5"><path d="M 58 41 L 58 456 L 817 456 L 817 41 M 58 41"/></clipPath>
</defs>
<rect x="0" y="0" width="904" height="532" style="fill: rgb(255,255,255);fill-opacity: 1" transform="matrix(1,0,0,1,0,0)" clip-path="url(#clip-0)"/><g transform="matrix(1,0,0,1,0,0)"><text x="429.5" y="25.85" style="fill: rgb(75,75,109); font-family: sans-serif; font-size: 16px; font-weight: bold; " text-rendering="auto" clip-path="url(#clip-0)">word</text></g><rect x="837" y="144.31" width="57" height="274" style="fill: rgb(255,255,255);fill-opacity: 1" transform="matrix(1,0,0,1,0,0)" clip-path="url(#clip-0)"/><g style="stroke-width: 1.0;stroke: rgb(128,128,128);stroke-opacity: 1; fill: none" transform="matrix(1,0,0,1,0,0)" clip-path="url(#clip-0)"><path d="M 837 149.31 L 837 413.31 C 837 416.07 839.24 418.31 842 418.31 L 889 418.31 C 891.76 418.31 894 416.07 894 413.31 L 894 149.31 C 894 146.55 891.76 144.31 889 144.31 L 842 144.31 C 839.24 144.31 837 146.55 837 149.31 M 837 149.31"/></g><g style="fill: rgb(47,126,216);fill-opacity: 1; stroke: none" transform="matrix(1,0,0,1,0,0)" clip-path="url(#clip-0)"><path d="M 841 150.81 L 841 159.81 C 841 161.19 842.12 162.31 843.5 162.31 L 851.5 162.31 C 852.88 162.31 854 161.19 854 159.81 L 854 150.81 C 854 149.43 852.88 148.31 851.5 148.31 L 843.5 148.31 C 842.12 148.31 841 149.43 841 150.81 M 841 150.81"/></g><g transform="matrix(1,0,0,1,0,0)"><text x="858" y="159.12" style="fill: rgb(39,75,109); font-family: sans-serif; font-size: 11px; font-weight: bold; " text-rendering="auto" clip-path="url(#clip-0)">改革</text></g><g style="fill: rgb(13,35,58);fill-opacity: 1; stroke: none" transform="matrix(1,0,0,1,0,0)" clip-path="url(#clip-0)"><path d="M 841 168.81 L 841 177.81 C 841 179.19 842.12 180.31 843.5 180.31 L 851.5 180.31 C 852.88 180.31 854 179.19 854 177.81 L 854 168.81 C 854 167.43 852.88 166.31 851.5 166.31 L 843.5 166.31 C 842.12 166.31 841 167.43 841 168.81 M 841 168.81"/></g><g transform="matrix(1,0,0,1,0,0)"><text x="858" y="177.12" style="fill: rgb(39,75,109); font-family: sans-serif; font-size: 11px; font-weight: bold; " text-rendering="auto" clip-path="url(#clip-0)">讨论</text></g><g style="fill: rgb(139,188,33);fill-opacity: 1; stroke: none" transform="matrix(1,0,0,1,0,0)" clip-path="url(#clip-0)"><path d="M 841 186.81 L 841 195.81 C 841 197.19 842.12 198.31 843.5 198.31 L 851.5 198.31 C 852.88 198.31 854 197.19 854 195.81 L 854 186.81 C 854 185.43 852.88 184.31 851.5 184.31 L 843.5 184.31 C 842.12 184.31 841 185.43 841 186.81 M 841 186.81"/></g><g transform="matrix(1,0,0,1,0,0)"><text x="858" y="195.12" style="fill: rgb(39,75,109); font-family: sans-serif; font-size: 11px; font-weight: bold; " text-rendering="auto" clip-path="url(#clip-0)">辩论</text></g><g style="fill: rgb(145,0,0);fill-opacity: 1; stroke: none" transform="matrix(1,0,0,1,0,0)" clip-path="url(#clip-0)"><path d="M 841 204.81 L 841 213.81 C 841 215.19 842.12 216.31 843.5 216.31 L 851.5 216.31 C 852.88 216.31 854 215.19 854 213.81 L 854 204.81 C 854 203.43 852.88 202.31 851.5 202.31 L 843.5 202.31 C 842.12 202.31 841 203.43 841 204.81 M 841 204.81"/></g><g transform="matrix(1,0,0,1,0,0)"><text x="858" y="213.12" style="fill: rgb(39,75,109); font-family: sans-serif; font-size: 11px; font-weight: bold; " text-rendering="auto" clip-path="url(#clip-0)">法律</text></g><g style="fill: rgb(255,85,85);fill-opacity: 1; stroke: none" transform="matrix(1,0,0,1,0,0)" clip-path="url(#clip-0)"><path d="M 841 222.81 L 841 231.81 C 841 233.19 842.12 234.31 843.5 234.31 L 851.5 234.31 C 852.88 234.31 854 233.19 854 231.81 L 854 222.81 C 854 221.43 852.88 220.31 851.5 220.31 L 843.5 220.31 C 842.12 220.31 841 221.43 841 222.81 M 841 222.81"/></g><g transform="matrix(1,0,0,1,0,0)"><text x="858" y="231.12" style="fill: rgb(39,75,109); font-family: sans-serif; font-size: 11px; font-weight: bold; " text-rendering="auto" clip-path="url(#clip-0)">分子</text></g><g style="fill: rgb(85,85,255);fill-opacity: 1; stroke: none" transform="matrix(1,0,0,1,0,0)" clip-path="url(#clip-0)"><path d="M 841 240.81 L 841 249.81 C 841 251.19 842.12 252.31 843.5 252.31 L 851.5 252.31 C 852.88 252.31 854 251.19 854 249.81 L 854 240.81 C 854 239.43 852.88 238.31 851.5 238.31 L 843.5 238.31 C 842.12 238.31 841 239.43 841 240.81 M 841 240.81"/></g><g transform="matrix(1,0,0,1,0,0)"><text x="858" y="249.12" style="fill: rgb(39,75,109); font-family: sans-serif; font-size: 11px; font-weight: bold; " text-rendering="auto" clip-path="url(#clip-0)">民众</text></g><g style="fill: rgb(85,255,85);fill-opacity: 1; stroke: none" transform="matrix(1,0,0,1,0,0)" clip-path="url(#clip-0)"><path d="M 841 258.81 L 841 267.81 C 841 269.19 842.12 270.31 843.5 270.31 L 851.5 270.31 C 852.88 270.31 854 269.19 854 267.81 L 854 258.81 C 854 257.43 852.88 256.31 851.5 256.31 L 843.5 256.31 C 842.12 256.31 841 257.43 841 258.81 M 841 258.81"/></g><g transform="matrix(1,0,0,1,0,0)"><text x="858" y="267.12" style="fill: rgb(39,75,109); font-family: sans-serif; font-size: 11px; font-weight: bold; " text-rendering="auto" clip-path="url(#clip-0)">围巾</text></g><g style="fill: rgb(255,255,85);fill-opacity: 1; stroke: none" transform="matrix(1,0,0,1,0,0)" clip-path="url(#clip-0)"><path d="M 841 276.81 L 841 285.81 C 841 287.19 842.12 288.31 843.5 288.31 L 851.5 288.31 C 852.88 288.31 854 287.19 854 285.81 L 854 276.81 C 854 275.43 852.88 274.31 851.5 274.31 L 843.5 274.31 C 842.12 274.31 841 275.43 841 276.81 M 841 276.81"/></g><g transform="matrix(1,0,0,1,0,0)"><text x="858" y="285.12" style="fill: rgb(39,75,109); font-family: sans-serif; font-size: 11px; font-weight: bold; " text-rendering="auto" clip-path="url(#clip-0)">示威</text></g><g style="fill: rgb(255,85,255);fill-opacity: 1; stroke: none" transform="matrix(1,0,0,1,0,0)" clip-path="url(#clip-0)"><path d="M 841 294.81 L 841 303.81 C 841 305.19 842.12 306.31 843.5 306.31 L 851.5 306.31 C 852.88 306.31 854 305.19 854 303.81 L 854 294.81 C 854 293.43 852.88 292.31 851.5 292.31 L 843.5 292.31 C 842.12 292.31 841 293.43 841 294.81 M 841 294.81"/></g><g transform="matrix(1,0,0,1,0,0)"><text x="858" y="303.12" style="fill: rgb(39,75,109); font-family: sans-serif; font-size: 11px; font-weight: bold; " text-rendering="auto" clip-path="url(#clip-0)">2018</text></g><g style="fill: rgb(85,255,255);fill-opacity: 1; stroke: none" transform="matrix(1,0,0,1,0,0)" clip-path="url(#clip-0)"><path d="M 841 312.81 L 841 321.81 C 841 323.19 842.12 324.31 843.5 324.31 L 851.5 324.31 C 852.88 324.31 854 323.19 854 321.81 L 854 312.81 C 854 311.43 852.88 310.31 851.5 310.31 L 843.5 310.31 C 842.12 310.31 841 311.43 841 312.81 M 841 312.81"/></g><g transform="matrix(1,0,0,1,0,0)"><text x="858" y="321.12" style="fill: rgb(39,75,109); font-family: sans-serif; font-size: 11px; font-weight: bold; " text-rendering="auto" clip-path="url(#clip-0)">马克龙</text></g><g style="fill: rgb(255,175,175);fill-opacity: 1; stroke: none" transform="matrix(1,0,0,1,0,0)" clip-path="url(#clip-0)"><path d="M 841 330.81 L 841 339.81 C 841 341.19 842.12 342.31 843.5 342.31 L 851.5 342.31 C 852.88 342.31 854 341.19 854 339.81 L 854 330.81 C 854 329.43 852.88 328.31 851.5 328.31 L 843.5 328.31 C 842.12 328.31 841 329.43 841 330.81 M 841 330.81"/></g><g transform="matrix(1,0,0,1,0,0)"><text x="858" y="339.12" style="fill: rgb(39,75,109); font-family: sans-serif; font-size: 11px; font-weight: bold; " text-rendering="auto" clip-path="url(#clip-0)">暴力</text></g><g style="fill: rgb(128,128,128);fill-opacity: 1; stroke: none" transform="matrix(1,0,0,1,0,0)" clip-path="url(#clip-0)"><path d="M 841 348.81 L 841 357.81 C 841 359.19 842.12 360.31 843.5 360.31 L 851.5 360.31 C 852.88 360.31 854 359.19 854 357.81 L 854 348.81 C 854 347.43 852.88 346.31 851.5 346.31 L 843.5 346.31 C 842.12 346.31 841 347.43 841 348.81 M 841 348.81"/></g><g transform="matrix(1,0,0,1,0,0)"><text x="858" y="357.12" style="fill: rgb(39,75,109); font-family: sans-serif; font-size: 11px; font-weight: bold; " text-rendering="auto" clip-path="url(#clip-0)">公开信</text></g><g style="fill: rgb(192,0,0);fill-opacity: 1; stroke: none" transform="matrix(1,0,0,1,0,0)" clip-path="url(#clip-0)"><path d="M 841 366.81 L 841 375.81 C 841 377.19 842.12 378.31 843.5 378.31 L 851.5 378.31 C 852.88 378.31 854 377.19 854 375.81 L 854 366.81 C 854 365.43 852.88 364.31 851.5 364.31 L 843.5 364.31 C 842.12 364.31 841 365.43 841 366.81 M 841 366.81"/></g><g transform="matrix(1,0,0,1,0,0)"><text x="858" y="375.12" style="fill: rgb(39,75,109); font-family: sans-serif; font-size: 11px; font-weight: bold; " text-rendering="auto" clip-path="url(#clip-0)">身份</text></g><g style="fill: rgb(0,0,192);fill-opacity: 1; stroke: none" transform="matrix(1,0,0,1,0,0)" clip-path="url(#clip-0)"><path d="M 841 384.81 L 841 393.81 C 841 395.19 842.12 396.31 843.5 396.31 L 851.5 396.31 C 852.88 396.31 854 395.19 854 393.81 L 854 384.81 C 854 383.43 852.88 382.31 851.5 382.31 L 843.5 382.31 C 842.12 382.31 841 383.43 841 384.81 M 841 384.81"/></g><g transform="matrix(1,0,0,1,0,0)"><text x="858" y="393.12" style="fill: rgb(39,75,109); font-family: sans-serif; font-size: 11px; font-weight: bold; " text-rendering="auto" clip-path="url(#clip-0)">格里</text></g><g style="fill: rgb(0,192,0);fill-opacity: 1; stroke: none" transform="matrix(1,0,0,1,0,0)" clip-path="url(#clip-0)"><path d="M 841 402.81 L 841 411.81 C 841 413.19 842.12 414.31 843.5 414.31 L 851.5 414.31 C 852.88 414.31 854 413.19 854 411.81 L 854 402.81 C 854 401.43 852.88 400.31 851.5 400.31 L 843.5 400.31 C 842.12 400.31 841 401.43 841 402.81 M 841 402.81"/></g><g transform="matrix(1,0,0,1,0,0)"><text x="858" y="411.12" style="fill: rgb(39,75,109); font-family: sans-serif; font-size: 11px; font-weight: bold; " text-rendering="auto" clip-path="url(#clip-0)">情绪</text></g><rect x="58" y="41" width="759" height="415" style="fill: rgb(255,255,255);fill-opacity: 1" transform="matrix(1,0,0,1,0,0)" clip-path="url(#clip-0)"/><line x1="58" y1="456" x2="817" y2="456" style="stroke-width: 1.0;stroke: rgb(192,208,224);stroke-opacity: 1;" transform="matrix(1,0,0,1,0,0)" clip-path="url(#clip-0)"/><g transform="matrix(0,-1,1,0,-283.5,652.5)"><text x="152.5" y="471.81" style="fill: rgb(102,102,102); font-family: sans-serif; font-size: 11px; font-weight: bold; " text-rendering="auto" clip-path="url(#clip-1)">2018</text></g><line x1="311" y1="461" x2="311" y2="456" style="stroke-width: 1.0;stroke: rgb(192,208,224);stroke-opacity: 1;" transform="matrix(1,0,0,1,0,0)" clip-path="url(#clip-0)"/><line x1="58" y1="461" x2="58" y2="456" style="stroke-width: 1.0;stroke: rgb(192,208,224);stroke-opacity: 1;" transform="matrix(1,0,0,1,0,0)" clip-path="url(#clip-0)"/><g transform="matrix(0,-1,1,0,-30.5,905.5)"><text x="410.5" y="471.81" style="fill: rgb(102,102,102); font-family: sans-serif; font-size: 11px; font-weight: bold; " text-rendering="auto" clip-path="url(#clip-2)">janv</text></g><line x1="564" y1="461" x2="564" y2="456" style="stroke-width: 1.0;stroke: rgb(192,208,224);stroke-opacity: 1;" transform="matrix(1,0,0,1,0,0)" clip-path="url(#clip-0)"/><g transform="matrix(0,-1,1,0,222.5,1158.5)"><text x="670.5" y="471.81" style="fill: rgb(102,102,102); font-family: sans-serif; font-size: 11px; font-weight: bold; " text-rendering="auto" clip-path="url(#clip-3)">fev</text></g><line x1="817" y1="461" x2="817" y2="456" style="stroke-width: 1.0;stroke: rgb(192,208,224);stroke-opacity: 1;" transform="matrix(1,0,0,1,0,0)" clip-path="url(#clip-0)"/><g transform="matrix(1,0,0,1,0,0)"><text x="420" y="514.92" style="fill: rgb(77,117,158); font-family: sans-serif; font-size: 15px; font-weight: bold; " text-rendering="auto" clip-path="url(#clip-0)">Part</text></g><g transform="matrix(1,0,0,1,0,0)"><text x="27" y="410.88" style="fill: rgb(102,102,102); font-family: sans-serif; font-size: 11px; font-weight: bold; " text-rendering="auto" clip-path="url(#clip-0)">-7.5</text></g><g transform="matrix(1,0,0,1,0,0)"><text x="27" y="370.89" style="fill: rgb(102,102,102); font-family: sans-serif; font-size: 11px; font-weight: bold; " text-rendering="auto" clip-path="url(#clip-0)">-5.0</text></g><g transform="matrix(1,0,0,1,0,0)"><text x="27" y="330.9" style="fill: rgb(102,102,102); font-family: sans-serif; font-size: 11px; font-weight: bold; " text-rendering="auto" clip-path="url(#clip-0)">-2.5</text></g><g transform="matrix(1,0,0,1,0,0)"><text x="32" y="290.91" style="fill: rgb(102,102,102); font-family: sans-serif; font-size: 11px; font-weight: bold; " text-rendering="auto" clip-path="url(#clip-0)">0.0</text></g><g transform="matrix(1,0,0,1,0,0)"><text x="32" y="250.92" style="fill: rgb(102,102,102); font-family: sans-serif; font-size: 11px; font-weight: bold; " text-rendering="auto" clip-path="url(#clip-0)">2.5</text></g><g transform="matrix(1,0,0,1,0,0)"><text x="32" y="210.93" style="fill: rgb(102,102,102); font-family: sans-serif; font-size: 11px; font-weight: bold; " text-rendering="auto" clip-path="url(#clip-0)">5.0</text></g><g transform="matrix(1,0,0,1,0,0)"><text x="32" y="170.95" style="fill: rgb(102,102,102); font-family: sans-serif; font-size: 11px; font-weight: bold; " text-rendering="auto" clip-path="url(#clip-0)">7.5</text></g><g transform="matrix(1,0,0,1,0,0)"><text x="24" y="130.96" style="fill: rgb(102,102,102); font-family: sans-serif; font-size: 11px; font-weight: bold; " text-rendering="auto" clip-path="url(#clip-0)">10.0</text></g><g transform="matrix(1,0,0,1,0,0)"><text x="24" y="90.97" style="fill: rgb(102,102,102); font-family: sans-serif; font-size: 11px; font-weight: bold; " text-rendering="auto" clip-path="url(#clip-0)">12.5</text></g><g transform="matrix(0,-1,1,0,-238.230469,258.769531)"><text x="-13.23" y="253.69" style="fill: rgb(77,117,158); font-family: sans-serif; font-size: 15px; font-weight: bold; " text-rendering="auto" clip-path="url(#clip-4)">Score</text></g><line x1="58" y1="407.07" x2="817" y2="407.07" style="stroke-width: 1.0;stroke: rgb(192,192,192);stroke-opacity: 1;" transform="matrix(1,0,0,1,0,0)" clip-path="url(#clip-5)"/><line x1="58" y1="367.08" x2="817" y2="367.08" style="stroke-width: 1.0;stroke: rgb(192,192,192);stroke-opacity: 1;" transform="matrix(1,0,0,1,0,0)" clip-path="url(#clip-5)"/><line x1="58" y1="327.09" x2="817" y2="327.09" style="stroke-width: 1.0;stroke: rgb(192,192,192);stroke-opacity: 1;" transform="matrix(1,0,0,1,0,0)" clip-path="url(#clip-5)"/><line x1="58" y1="287.1" x2="817" y2="287.1" style="stroke-width: 1.0;stroke: rgb(192,192,192);stroke-opacity: 1;" transform="matrix(1,0,0,1,0,0)" clip-path="url(#clip-5)"/><line x1="58" y1="247.11" x2="817" y2="247.11" style="stroke-width: 1.0;stroke: rgb(192,192,192);stroke-opacity: 1;" transform="matrix(1,0,0,1,0,0)" clip-path="url(#clip-5)"/><line x1="58" y1="207.13" x2="817" y2="207.13" style="stroke-width: 1.0;stroke: rgb(192,192,192);stroke-opacity: 1;" transform="matrix(1,0,0,1,0,0)" clip-path="url(#clip-5)"/><line x1="58" y1="167.14" x2="817" y2="167.14" style="stroke-width: 1.0;stroke: rgb(192,192,192);stroke-opacity: 1;" transform="matrix(1,0,0,1,0,0)" clip-path="url(#clip-5)"/><line x1="58" y1="127.15" x2="817" y2="127.15" style="stroke-width: 1.0;stroke: rgb(192,192,192);stroke-opacity: 1;" transform="matrix(1,0,0,1,0,0)" clip-path="url(#clip-5)"/><line x1="58" y1="87.16" x2="817" y2="87.16" style="stroke-width: 1.0;stroke: rgb(192,192,192);stroke-opacity: 1;" transform="matrix(1,0,0,1,0,0)" clip-path="url(#clip-5)"/><rect x="261.24" y="287.1" width="11.81" height="60.15" style="fill: rgb(0,192,0);fill-opacity: 1" transform="matrix(1,0,0,1,0,0)" clip-path="url(#clip-5)"/><rect x="514.24" y="207.58" width="11.81" height="79.52" style="fill: rgb(0,192,0);fill-opacity: 1" transform="matrix(1,0,0,1,0,0)" clip-path="url(#clip-5)"/><rect x="767.24" y="287.1" width="11.81" height="7.85" style="fill: rgb(0,192,0);fill-opacity: 1" transform="matrix(1,0,0,1,0,0)" clip-path="url(#clip-5)"/><rect x="249.44" y="287.1" width="11.81" height="51.87" style="fill: rgb(0,0,192);fill-opacity: 1" transform="matrix(1,0,0,1,0,0)" clip-path="url(#clip-5)"/><rect x="502.44" y="206.81" width="11.81" height="80.3" style="fill: rgb(0,0,192);fill-opacity: 1" transform="matrix(1,0,0,1,0,0)" clip-path="url(#clip-5)"/><rect x="755.44" y="287.1" width="11.81" height="13.31" style="fill: rgb(0,0,192);fill-opacity: 1" transform="matrix(1,0,0,1,0,0)" clip-path="url(#clip-5)"/><rect x="237.63" y="287.1" width="11.81" height="60.03" style="fill: rgb(192,0,0);fill-opacity: 1" transform="matrix(1,0,0,1,0,0)" clip-path="url(#clip-5)"/><rect x="490.63" y="205.24" width="11.81" height="81.86" style="fill: rgb(192,0,0);fill-opacity: 1" transform="matrix(1,0,0,1,0,0)" clip-path="url(#clip-5)"/><rect x="743.63" y="287.1" width="11.81" height="7.49" style="fill: rgb(192,0,0);fill-opacity: 1" transform="matrix(1,0,0,1,0,0)" clip-path="url(#clip-5)"/><rect x="225.82" y="287.1" width="11.81" height="60.03" style="fill: rgb(128,128,128);fill-opacity: 1" transform="matrix(1,0,0,1,0,0)" clip-path="url(#clip-5)"/><rect x="478.82" y="205.24" width="11.81" height="81.86" style="fill: rgb(128,128,128);fill-opacity: 1" transform="matrix(1,0,0,1,0,0)" clip-path="url(#clip-5)"/><rect x="731.82" y="287.1" width="11.81" height="7.49" style="fill: rgb(128,128,128);fill-opacity: 1" transform="matrix(1,0,0,1,0,0)" clip-path="url(#clip-5)"/><rect x="214.02" y="287.1" width="11.81" height="47.51" style="fill: rgb(255,175,175);fill-opacity: 1" transform="matrix(1,0,0,1,0,0)" clip-path="url(#clip-5)"/><rect x="467.02" y="205.09" width="11.81" height="82.01" style="fill: rgb(255,175,175);fill-opacity: 1" transform="matrix(1,0,0,1,0,0)" clip-path="url(#clip-5)"/><rect x="720.02" y="287.1" width="11.81" height="18.93" style="fill: rgb(255,175,175);fill-opacity: 1" transform="matrix(1,0,0,1,0,0)" clip-path="url(#clip-5)"/><rect x="202.21" y="287.1" width="11.81" height="17.62" style="fill: rgb(85,255,255);fill-opacity: 1" transform="matrix(1,0,0,1,0,0)" clip-path="url(#clip-5)"/><rect x="455.21" y="186.75" width="11.81" height="100.35" style="fill: rgb(85,255,255);fill-opacity: 1" transform="matrix(1,0,0,1,0,0)" clip-path="url(#clip-5)"/><rect x="708.21" y="287.1" width="11.81" height="118.44" style="fill: rgb(85,255,255);fill-opacity: 1" transform="matrix(1,0,0,1,0,0)" clip-path="url(#clip-5)"/><rect x="190.4" y="287.1" width="11.81" height="118.8" style="fill: rgb(255,85,255);fill-opacity: 1" transform="matrix(1,0,0,1,0,0)" clip-path="url(#clip-5)"/><rect x="443.4" y="177.18" width="11.81" height="109.92" style="fill: rgb(255,85,255);fill-opacity: 1" transform="matrix(1,0,0,1,0,0)" clip-path="url(#clip-5)"/><rect x="696.4" y="280.45" width="11.81" height="6.65" style="fill: rgb(255,85,255);fill-opacity: 1" transform="matrix(1,0,0,1,0,0)" clip-path="url(#clip-5)"/><rect x="178.6" y="287.1" width="11.81" height="40.39" style="fill: rgb(255,255,85);fill-opacity: 1" transform="matrix(1,0,0,1,0,0)" clip-path="url(#clip-5)"/><rect x="431.6" y="171.26" width="11.81" height="115.84" style="fill: rgb(255,255,85);fill-opacity: 1" transform="matrix(1,0,0,1,0,0)" clip-path="url(#clip-5)"/><rect x="684.6" y="287.1" width="11.81" height="67.97" style="fill: rgb(255,255,85);fill-opacity: 1" transform="matrix(1,0,0,1,0,0)" clip-path="url(#clip-5)"/><rect x="166.79" y="287.1" width="11.81" height="86.72" style="fill: rgb(85,255,85);fill-opacity: 1" transform="matrix(1,0,0,1,0,0)" clip-path="url(#clip-5)"/><rect x="419.79" y="168.85" width="11.81" height="118.26" style="fill: rgb(85,255,85);fill-opacity: 1" transform="matrix(1,0,0,1,0,0)" clip-path="url(#clip-5)"/><rect x="672.79" y="287.1" width="11.81" height="10.81" style="fill: rgb(85,255,85);fill-opacity: 1" transform="matrix(1,0,0,1,0,0)" clip-path="url(#clip-5)"/><rect x="154.98" y="287.1" width="11.81" height="31.98" style="fill: rgb(85,85,255);fill-opacity: 1" transform="matrix(1,0,0,1,0,0)" clip-path="url(#clip-5)"/><rect x="407.98" y="157.34" width="11.81" height="129.76" style="fill: rgb(85,85,255);fill-opacity: 1" transform="matrix(1,0,0,1,0,0)" clip-path="url(#clip-5)"/><rect x="660.98" y="287.1" width="11.81" height="126.34" style="fill: rgb(85,85,255);fill-opacity: 1" transform="matrix(1,0,0,1,0,0)" clip-path="url(#clip-5)"/><rect x="143.18" y="287.1" width="11.81" height="89.36" style="fill: rgb(255,85,85);fill-opacity: 1" transform="matrix(1,0,0,1,0,0)" clip-path="url(#clip-5)"/><rect x="396.18" y="135.95" width="11.81" height="151.15" style="fill: rgb(255,85,85);fill-opacity: 1" transform="matrix(1,0,0,1,0,0)" clip-path="url(#clip-5)"/><rect x="649.18" y="287.1" width="11.81" height="33.28" style="fill: rgb(255,85,85);fill-opacity: 1" transform="matrix(1,0,0,1,0,0)" clip-path="url(#clip-5)"/><rect x="131.37" y="287.1" width="11.81" height="114.06" style="fill: rgb(145,0,0);fill-opacity: 1" transform="matrix(1,0,0,1,0,0)" clip-path="url(#clip-5)"/><rect x="384.37" y="121.84" width="11.81" height="165.27" style="fill: rgb(145,0,0);fill-opacity: 1" transform="matrix(1,0,0,1,0,0)" clip-path="url(#clip-5)"/><rect x="637.37" y="287.1" width="11.81" height="19.97" style="fill: rgb(145,0,0);fill-opacity: 1" transform="matrix(1,0,0,1,0,0)" clip-path="url(#clip-5)"/><rect x="119.56" y="287.1" width="11.81" height="133.71" style="fill: rgb(139,188,33);fill-opacity: 1" transform="matrix(1,0,0,1,0,0)" clip-path="url(#clip-5)"/><rect x="372.56" y="102.11" width="11.81" height="184.99" style="fill: rgb(139,188,33);fill-opacity: 1" transform="matrix(1,0,0,1,0,0)" clip-path="url(#clip-5)"/><rect x="625.56" y="287.1" width="11.81" height="18.01" style="fill: rgb(139,188,33);fill-opacity: 1" transform="matrix(1,0,0,1,0,0)" clip-path="url(#clip-5)"/><rect x="107.76" y="287.1" width="11.81" height="150.03" style="fill: rgb(13,35,58);fill-opacity: 1" transform="matrix(1,0,0,1,0,0)" clip-path="url(#clip-5)"/><rect x="360.76" y="88.59" width="11.81" height="198.52" style="fill: rgb(13,35,58);fill-opacity: 1" transform="matrix(1,0,0,1,0,0)" clip-path="url(#clip-5)"/><rect x="613.76" y="287.1" width="11.81" height="16" style="fill: rgb(13,35,58);fill-opacity: 1" transform="matrix(1,0,0,1,0,0)" clip-path="url(#clip-5)"/><rect x="95.95" y="287.1" width="11.81" height="119.99" style="fill: rgb(47,126,216);fill-opacity: 1" transform="matrix(1,0,0,1,0,0)" clip-path="url(#clip-5)"/><rect x="348.95" y="59.86" width="11.81" height="227.24" style="fill: rgb(47,126,216);fill-opacity: 1" transform="matrix(1,0,0,1,0,0)" clip-path="url(#clip-5)"/><rect x="601.95" y="287.1" width="11.81" height="54.58" style="fill: rgb(47,126,216);fill-opacity: 1" transform="matrix(1,0,0,1,0,0)" clip-path="url(#clip-5)"/><line x1="58" y1="255.11" x2="817" y2="255.11" style="stroke-width: 0.5;stroke: rgb(255,0,0);stroke-opacity: 1;" transform="matrix(1,0,0,1,0,0)" clip-path="url(#clip-5)"/><g transform="matrix(1,0,0,1,0,0)"><text x="753" y="249.99" style="fill: rgb(0,0,0); font-family: sans-serif; font-size: 9px; " text-rendering="auto" clip-path="url(#clip-5)">Banality: 2.0</text></g><line x1="58" y1="319.09" x2="817" y2="319.09" style="stroke-width: 0.5;stroke: rgb(255,0,0);stroke-opacity: 1;" transform="matrix(1,0,0,1,0,0)" clip-path="url(#clip-5)"/><g transform="matrix(1,0,0,1,0,0)"><text x="750" y="313.97" style="fill: rgb(0,0,0); font-family: sans-serif; font-size: 9px; " text-rendering="auto" clip-path="url(#clip-5)">Banality: -2.0</text></g></svg>
